<?xml version="1.0" encoding="UTF-8"?>
<svg id="Layer_1" data-name="Layer 1" xmlns="http://www.w3.org/2000/svg" xmlns:xlink="http://www.w3.org/1999/xlink" viewBox="0 0 389.5 344.85">
  <defs>
    <style>
      .cls-1, .cls-2, .cls-3 {
        fill: none;
      }

      .cls-4 {
        fill: #d2d2d5;
      }

      .cls-5 {
        fill: #ebf5f8;
      }

      .cls-6 {
        fill: #f3f9fb;
      }

      .cls-7 {
        fill: #81badd;
      }

      .cls-8 {
        fill: #72bfe2;
      }

      .cls-9 {
        fill: #d7d7d8;
      }

      .cls-10 {
        fill: #fafdff;
      }

      .cls-11 {
        fill: #9dd2ec;
      }

      .cls-12 {
        fill: #4f96c7;
      }

      .cls-13 {
        fill: #508ab5;
      }

      .cls-14 {
        fill: #255e8f;
      }

      .cls-15 {
        fill: #f0de00;
      }

      .cls-16 {
        fill: #5088b4;
      }

      .cls-17 {
        fill: #c9eaf8;
      }

      .cls-18 {
        fill: #2c6b9e;
      }

      .cls-19 {
        fill: #b3b2b4;
      }

      .cls-20 {
        fill: #eff7f8;
      }

      .cls-21 {
        fill: #242627;
      }

      .cls-22 {
        fill: url(#linear-gradient-2);
      }

      .cls-23 {
        fill: #6a6b6d;
      }

      .cls-24 {
        fill: #5190c1;
      }

      .cls-25 {
        fill: #579fcb;
      }

      .cls-26 {
        fill: #80c0de;
      }

      .cls-27 {
        fill: #f8fcfe;
      }

      .cls-28 {
        fill: #f6fafc;
      }

      .cls-29 {
        fill: #eff8fa;
      }

      .cls-30 {
        fill: #f6f6f7;
      }

      .cls-31 {
        fill: url(#linear-gradient);
      }

      .cls-32 {
        fill: #296699;
      }

      .cls-33 {
        fill: #eaf6fc;
      }

      .cls-34 {
        fill: #67b1d9;
      }

      .cls-35 {
        fill: #b4dded;
      }

      .cls-36 {
        fill: #9bdaef;
      }

      .cls-37 {
        fill: #5aa5d2;
      }

      .cls-38 {
        fill: #787678;
      }

      .cls-39 {
        fill: #5da9d5;
      }

      .cls-40 {
        fill: #fefeff;
      }

      .cls-41 {
        fill: #dbeff8;
      }

      .cls-42 {
        fill: #c6e7f5;
      }

      .cls-43 {
        fill: #7fc1e2;
      }

      .cls-44 {
        fill: #1f1f23;
      }

      .cls-45 {
        fill: #3a82b5;
      }

      .cls-46 {
        fill: #e6f0f3;
      }

      .cls-47 {
        fill: #f1f2f2;
      }

      .cls-48 {
        fill: #c0d9eb;
      }

      .cls-49 {
        fill: #1f1e22;
      }

      .cls-50 {
        fill: url(#linear-gradient-3);
        opacity: .9;
      }

      .cls-51 {
        fill: #f2f9fb;
      }

      .cls-52 {
        fill: #80c1e2;
      }

      .cls-53 {
        fill: #d5d7d8;
      }

      .cls-54 {
        fill: #353538;
      }

      .cls-55 {
        fill: #fff;
      }

      .cls-56 {
        fill: #b8e0ed;
      }

      .cls-57 {
        fill: #ecf8fd;
      }

      .cls-58 {
        fill: #a6d7f1;
      }

      .cls-59 {
        fill: #d7eff8;
      }

      .cls-60 {
        fill: #3e76a3;
      }

      .cls-61 {
        fill: #2b2a2e;
      }

      .cls-62 {
        fill: #c9e7f7;
      }

      .cls-63 {
        fill: #f3f3f4;
        stroke: #231f20;
        stroke-width: .75px;
      }

      .cls-63, .cls-2, .cls-3 {
        stroke-miterlimit: 10;
      }

      .cls-64 {
        fill: #36363a;
      }

      .cls-65 {
        fill: #424347;
      }

      .cls-66 {
        fill: #808285;
      }

      .cls-67 {
        fill: #f9fcfe;
      }

      .cls-68 {
        fill: #499bcb;
      }

      .cls-69 {
        fill: #17171b;
      }

      .cls-70 {
        fill: #72b2d6;
      }

      .cls-71 {
        fill: #9bdbf2;
      }

      .cls-72 {
        fill: #f7fbfe;
      }

      .cls-73 {
        fill: #f7fafb;
      }

      .cls-74 {
        fill: #2e3192;
      }

      .cls-75 {
        fill: #2a689b;
      }

      .cls-76 {
        fill: #18191b;
      }

      .cls-77 {
        fill: #5488af;
      }

      .cls-78 {
        fill: #f3f8fb;
      }

      .cls-79 {
        fill: #1c75bc;
      }

      .cls-2 {
        stroke: #fff200;
        stroke-width: 3px;
      }

      .cls-80 {
        fill: #ceccce;
      }

      .cls-81 {
        fill: #dad9da;
      }

      .cls-3 {
        stroke: #2e3192;
        stroke-width: 4px;
      }

      .cls-82 {
        fill: #8accea;
      }

      .cls-83 {
        fill: #9f9fa1;
      }

      .cls-84 {
        fill: #1f1f22;
      }

      .cls-85 {
        fill: #6eaacd;
      }

      .cls-86 {
        fill: #f9fdfe;
      }

      .cls-87 {
        fill: #bebdbf;
      }

      .cls-88 {
        fill: #f8f7f7;
      }

      .cls-89 {
        fill: #69a7d1;
      }

      .cls-90 {
        clip-path: url(#clippath);
      }

      .cls-91 {
        fill: #dadadd;
      }

      .cls-92 {
        fill: #fff200;
      }

      .cls-93 {
        fill: #fefcf9;
      }

      .cls-94 {
        fill: #abdcf3;
      }

      .cls-95 {
        fill: #a1d3ec;
      }
    </style>
    <clipPath id="clippath">
      <circle class="cls-1" cx="178.72" cy="150.79" r="145"/>
    </clipPath>
    <linearGradient id="linear-gradient" x1="107.27" y1="207.81" x2="121.5" y2="288.12" gradientUnits="userSpaceOnUse">
      <stop offset="0" stop-color="#54a4d0"/>
      <stop offset="1" stop-color="#2d6fa3"/>
    </linearGradient>
    <linearGradient id="linear-gradient-2" x1="213.36" y1="267.31" x2="181.01" y2="371.35" gradientUnits="userSpaceOnUse">
      <stop offset="0" stop-color="#3c81b4"/>
      <stop offset="1" stop-color="#29689b"/>
    </linearGradient>
    <linearGradient id="linear-gradient-3" x1="99.55" y1="32.13" x2="132.94" y2="89.96" gradientUnits="userSpaceOnUse">
      <stop offset="0" stop-color="#fff"/>
      <stop offset="1" stop-color="#f0de00"/>
    </linearGradient>
  </defs>
  <circle class="cls-3" cx="178.72" cy="152" r="150"/>
  <circle class="cls-2" cx="178.37" cy="152" r="145"/>
  <g id="Generative_Object" data-name="Generative Object">
    <path class="cls-76" d="M196.36,36.15c2.23-2.17,2.27-4.53,6.21-4.26-.94-1.58-1.42-1.88-3.04-2.19,2.62-1.19,2.89-.04,4.86,1.77,2.04-2,1.24-3.69,5.36-4.53,1.53-.25,2.89-.62,4.32-1.39-1.97,3.7-6.52,1.77-7.91,7.03.77.56,1.47.65,2.37.99-4.47,2.53-4.8-2.45-10.1,1.38-.72.52-1.16,1.12-2.07,1.2Z"/>
    <g>
      <path class="cls-15" d="M207.39,162.78c1.14,11.7,2.96,23.47,3.38,34.95-.32-.05-.96-.28-1.03.19l-12.76-.75-2.61-34.41c4.04-.6,8.91-.04,13.02.01Z"/>
      <path class="cls-15" d="M203.87,128.81l3.33,33.25h-2.18c-.2,0-.26.14-.22.24h-4.95c-.01-.09.05-.31-.04-.46l-5.59-.03-2.4-33.59,11.81.9c.23.02.23-.2.24-.31Z"/>
      <path class="cls-15" d="M199.84,162.3h7.35c-.08.21.18.28.2.48-4.11-.05-8.97-.61-13.02-.01-.16.02-.2-.1-.19-.24.01-.17,0-.33,0-.5.71,0,1.44,0,2.22.16,1.13.23,2.33.11,3.45.11Z"/>
      <path class="cls-15" d="M207.2,162.06c.01.1.1.14-.01.24h-2.4c-.04-.1.02-.25.22-.24h2.18Z"/>
      <path class="cls-55" d="M210.78,197.73c.06.07.14.14,0,.19h-1.03c.07-.47.71-.25,1.03-.19Z"/>
      <g>
        <path class="cls-92" d="M194.19,162.54c-.01.14.03.26.19.24l2.61,34.41-35.35.04-16.46.81c.24-1-.27-2.08.33-3.22s.56-2.51.69-3.64l.52-4.39.12-3.27c.03-.77.32-1.53.15-2.33-.2-.94.13-1.75.19-2.65.19-2.66,0-5.28.68-7.81.23-.84-.04-1.71.24-2.57s-.08-1.82-.06-2.77.31-1.77.38-2.59c1.99.14,3.96-.14,6.05-.15l39.72-.09Z"/>
        <path class="cls-44" d="M183.3,187.61h-8.95s0-10.96,0-10.96c0-2.71,1.96-4.8,4.6-4.54,2.01.2,4,1.66,4.22,3.88.38,3.87.16,7.78.13,11.63Z"/>
        <polygon class="cls-66" points="172.21 170.7 178.52 168.26 178.52 171.45 174.24 172.79 172.39 172.05 172.21 170.7"/>
        <polygon class="cls-66" points="184.82 170.7 178.52 168.26 178.52 171.45 182.79 172.79 184.64 172.05 184.82 170.7"/>
        <polyline class="cls-38" points="174.36 187.54 174.09 187.67 173.79 187.74 173.23 187.76 172.39 187.74 172.39 189.8 174.36 189.8 178.78 189.8 178.79 187.54 178.78 189.8 178.89 189.8 178.89 187.54 178.89 189.8 183.31 189.8 185.29 189.8 185.29 187.74 184.45 187.76 183.88 187.74 183.59 187.67 183.31 187.54"/>
      </g>
      <g>
        <circle class="cls-63" cx="177.88" cy="64.01" r="3.75"/>
        <path class="cls-74" d="M176.09,71.61v-1.76h3.63l.02,1.74,3.61.11c.28,0,.48.02.61-.1.2-.18.18-.3.18-.5.37.05.41.56.7.84.52.51,3.49.35,2.98.05,1.03.09,2.88.28,3.84.2.16-.01.46.04.6.19.13.13.04.41.39.34.17-.03.38,0,.36-.26,1.34-.09,2.68.59,4,.29,0,.31.27.18.22-.07l.14-10.13.2,10.33c0,.48.73.64.92.84l-.12,4.01c-.03,1.04.3,2.03.13,3.25-.12.91-.3,2.12.2,2.8-.44,1.46-.67,3-.43,4.5.35-.1.45.17.51.22.06.03.16-.15.15-.21,1.18.13,2.36.28,3.51,0-.04.31.23.19.48.28-.4.38-.12.48.23.41.28.05.69-.07.95.02.79.28,1.69.66,2.55.49.15.39.34.06.27-.27.06-.46-.2-1.07.24-1.21v1.69c-.02.27.19.21.29.22.62.11,1.24.31,1.87.67-.16,1.26.25,2.3-.19,3.68-3.17,1.77-7.75,5-7.64,9.31.21,8.57,1.55,16.89,2.38,25.24-.01.12-.01.33-.24.31l-11.81-.9-27.31-.04-5.95.41c.84-.7,1.95-1,3.07-.47.4.19.61-.34.79-.39.98-.3,2,.05,3.16.26l1.53-26.12c-3.87-.01-7.55.24-11.33.53-.52.04-.94.22-1.22.46-1.52-3.83-4.14-6.96-8.13-8.53l.13-3.69c.59.85.02,1.98.29,3.11,4.88-1.11,9.61-1.8,14.61-2.19,10.76-.83,21.42-.81,32.15-.2.13-1.15.12-2.19.05-3.37-4.4-.46-8.7-.43-13.14-.59l-2.52-.09c-7.07-.26-14.12.42-21.06,1.09.26-.54.1-3.89.02-3.87.13-.06.2-.23.17-.39-.01-.09-.07-.16-.17-.19-.02-1.24.45-2.7-.2-3.77.15-.26.08-.23-.03-.28-.25-.1-.4-.14-.5-.12v-.27c1.9.23,1.02-4.74.97-5.89.36.1.63-.18.25-.25l.18-20.74c.07.05.28-.01.25.15-.03.11.05.36.19.35.26-.26.33-.38.53-.49l.08,20.33,3.92-.53c.36-.05.61-.2.65-.48.16,0,.29-.1.44-.15-.09.15.06.48.2.65.1.13.42-.03.37-.21l6.53-.54-.03-20.3c-.23-.17-.06-.17.08-.29,1-.79.05,2.06.73,1.78l.08,18.77,4.44-.06"/>
        <path class="cls-74" d="M156.94,88.4c-.04.08-.09.09-.15.01.05,0,.1-.01.15-.01Z"/>
        <path class="cls-74" d="M158.56,128.6l-6.53.53,2.48-24.09c.08-.75.29-1.58.06-2.17.28-.24.7-.42,1.22-.46,3.78-.3,7.46-.54,11.33-.53l-1.53,26.12c-1.15-.21-2.17-.56-3.15-.27-.18.05-.39.59-.79.4-1.12-.53-2.23-.23-3.07.47Z"/>
        <path class="cls-74" d="M146.56,90.65c.39-.65,1.36-.47,1.86-.94.19.23.48-.12.71-.23.86.26,1.69-.3,2.57-.28.44.01,1-.02,1.23-.46,1.18-.15,2.5.33,3.56-.26.07-.04.17-.05.29-.06,6.99-.68,14.09-1.37,21.21-1.11l2.52.09c4.44.16,8.74.13,13.14.59.07,1.18.08,2.22-.05,3.37-10.74-.61-21.39-.63-32.15.2-5.01.39-9.73,1.08-14.61,2.18-.27-1.12.3-2.25-.29-3.1Z"/>
        <path class="cls-74" d="M174.12,30.53c-1.38-1.52-.91-4.31.7-5.46.52.16.96-.84,2.68-1,1.08,1.63,1.3,3.86.16,5.48-.87,1.24-2.42,1.65-3.54.98Z"/>
        <path class="cls-1" d="M170.75,51.42l.04,20.29-6.53.54c-.31-.36-.25-.76-.25-1.19l.06-19.35c2.3-.13,4.53-.6,6.68-.29Z"/>
        <path class="cls-1" d="M191.66,72.19c-.96.08-2.81-.11-3.84-.2l-2.86-.25v-20.48s6.68.49,6.68.49l.02,20.45Z"/>
        <path class="cls-1" d="M163.25,71.97c-.04.28-.29.43-.65.48l-3.91.53-.08-20.33c1.33-.69,2.97-.59,4.56-.81l.09,20.12Z"/>
        <path class="cls-1" d="M196.1,52.42c.06.28.17.55.04,1.07-.06.25.52.04.73.06l.1,10.2.04,9.01c-1.32.3-2.66-.38-4-.29l-.51-.26.05-20.27c1.27,0,2.45.16,3.55.48Z"/>
        <path class="cls-69" d="M193.01,72.46c.02.26-.19.23-.36.26-.35.07-.26-.21-.39-.34-.18-.18.06-.26.23-.18l.51.26Z"/>
        <g>
          <path class="cls-74" d="M207.39,88c-.08-.07-.15-.06-.23,0-.44.14-.18.75-.24,1.21.07.33-.12.66-.27.27l-.15-1.53c-.94.24-1.67.5-2.4.78-.27.11-.93-.23-.96.24-.35.07-.62-.03-.22-.42-.26-.09-.52.03-.48-.28.64-.16,4.47-.96,4.13-1.78-.39-.95-6.45-1.8-7.81-1.96-.11,1.27-.12,2.3-.08,3.44.15.1-.97.19.25.31s-.09.25-.15.21c-.06-.04-.16-.31-.51-.22-.25-1.5-.05-4.66.43-4.5s5.19.71,7.85,1.62v-3.27c-2.44-1.14-5.08-1.58-7.8-1.93-.14,1.24-.1,2.21-.05,3.58-.5-.68-.33-1.89-.2-2.81.17-1.21-.16-2.2-.13-3.24l.12-4.02c-.19-.19-.91-.35-.91-.83l-.21-10.33-.13,10.12c.05.25-.21.39-.22.08l-.04-9.01-.1-10.2c0-.32.13-.63.04-.91-.13-.4-.55-.15-.8-.22-1.1-.32-2.28-.47-3.55-.48l-.05,20.27c-.18-.08-.41,0-.23.18-.14-.15-.45-.2-.61-.19l-.02-20.45-6.68-.49v20.48s2.86.25,2.86.25c.5.3-2.46.46-2.98-.05-.29-.29-.33-.79-.7-.84l-.1-19.9c-4.18-.11-8.2-.22-12.32-.03-.13.62-.15,1.18-.14,1.73-.69.28.27-2.57-.73-1.78-.14.11-.31.11-.09.29-2.15-.32-4.38.16-6.68.29l-.06,19.35c-.38.01-.23.5-.32.76-.15.05-.28.15-.45.15l-.09-20.12c-1.6.22-3.23.12-4.56.81-.2.1-.27.23-.53.49-.14.01-.22-.24-.19-.35.04-.17-.18-.11-.24-.15-1.61-1.23-1.71.47-3.93-4.07l20.06-12.95c.3-3.5,1.53-1.67,1.42-2.5-.03-.24.36-1.02.12-1.17-.65-.42-.81-1-1.19-1.42,1.12.67,2.67.26,3.54-.98,1.14-1.63.92-3.85-.16-5.48-1.72.16-2.16,1.16-2.68,1,.52-.88,1.65-1.07,2.77-1.3l.1-9.77c0-.23.24-.43.45-.45l.1,10.16c1.91.25,3.51,1.52,4.04,3.18.65,2.01-.16,3.73-1.71,5.1-.26.23.08.91.07,1.14-.01.64.92-1.03,1.42,2.52l19.91,12.86c-1.64,3.18-.72,2.66-3.88,4.13l-.08,11.13c-.02,3.19-.06,6.25,0,9.49,1.38.2,9.95,1.42,9.61,3.46-.18,1.07-.31,2.02-.25,3.1l.16,2.59c.09,1.44-.31,2.79.09,4.26.12.44-.3.96-.24,1.36Z"/>
          <path class="cls-74" d="M207.45,89.92c-.09-.02-.3.05-.3-.22v-1.69c.09-.07.17-.08.24,0,.1.63-.1,1.29.06,1.92Z"/>
          <path class="cls-74" d="M164.26,72.25c.05.18-.28.34-.38.22-.13-.17-.29-.51-.19-.65.1-.26-.06-.75.32-.76,0,.44-.07.84.25,1.19Z"/>
          <path class="cls-74" d="M204.1,88.73c-.02.09-.02.17,0,.26-.26-.09-.67.03-.95-.02.03-.47.68-.14.96-.24Z"/>
          <path class="cls-74" d="M201.73,79.29l.05.68c-.37-.04-.6-.3-.99-.18-.66.04-1.21.03-1.68-.42l2.62-.07Z"/>
        </g>
        <path class="cls-88" d="M152.93,88.74c9.3-.34-.9,1.04-1.23.46s.09-.31.04-.47c.3.09-8.1.35,1.19.01Z"/>
        <g>
          <path class="cls-74" d="M157.45,73.38c.38.07.11.35-.25.24.05,1.16.93,6.12-.97,5.89l-1.68-.2c-1.8-.22-3.53-.63-5.36-1.25-.04,1.17-.09,1.98.05,3.15,1.84-.73,3.61-.92,5.32-1.42.51-.15,1.14.08,1.66-.02.1-.02.25.02.5.12.11.05.18.03.03.28-1.44.23-6.66,1.1-7.56,2.13-.22.25.06-2.94.12,1.01s0,1.92.09,2.08,5.05-1.32,7.56-1.43c.1.02.16.1.17.18.03.17-.04.33-.17.39-1.08.18-7.42,1.08-7.8,2-.49,1.17,6.48,2.25,7.33,1.95-1.06.59-2.38.1-3.56.26-.32.04-.89.08-1.19-.01l-2.57-.76c-.04.7,0-1.31-.03,1.51s-.52.46-.71.23c-.26-.9.22-1.87-.35-2.91.33-1.28.5-2.61.09-4,.13-1.73.48-3.61.04-5.34-.23-.88-.03-1.61.93-2.06,2.59-1.2,5.5-1.81,8.32-2.03Z"/>
          <path class="cls-55" d="M156.23,79.51v.27c-.52.09-1.15-.13-1.66.02.04-.17-.12-.33-.01-.49l1.68.2Z"/>
          <path class="cls-55" d="M149.18,76.96c-.29.06-.36-.28-.03-.26l.03.26Z"/>
        </g>
        <g>
          <path class="cls-55" d="M177.97,67.76c-2.15.14-3.84-1.66-3.83-3.74,0-2.22,1.65-3.81,3.81-3.75l.02,7.49Z"/>
          <path class="cls-19" d="M177.97,67.76l-.02-7.49c2.08.06,3.7,1.53,3.69,3.75,0,1.89-1.66,3.81-3.67,3.74Z"/>
        </g>
        <polygon class="cls-74" points="177.88 68.75 179.08 70 176.61 70 177.88 68.75"/>
        <polyline class="cls-74" points="176.21 67.76 179.59 67.76 177.84 70.06"/>
      </g>
      <g>
        <path class="cls-92" d="M191.82,128.23l2.4,33.59,5.59.03c.09.14.03.36.04.46-1.12,0-2.32.13-3.45-.11-.77-.16-1.5-.16-2.22-.16l-29.61.1-13.9.27c-.78.02-1.52.25-2.24.12.23-.38-.18-1.41-.03-1.86.49-1.49.41-5.37.66-6.19.27-.89-.07-1.83.12-2.78.46-2.37.57-6.83,1.08-8.79.22-.86.23-1.81.34-2.75l.13-1.19c.11-1,.36-1.84.49-2.76.27-2.02.24-3.93.72-5.78.12-.48.05-.87.09-1.29l6.53-.53,5.95-.42,27.31.04Z"/>
        <path class="cls-92" d="M194.18,162.04c0,.17.02.33,0,.5l-39.72.09c-2.09,0-4.06.28-6.05.15,0-.07-.02-.19.01-.25.72.12,1.47-.11,2.24-.12l13.9-.27,29.61-.1Z"/>
        <path class="cls-49" d="M183.34,149.6l-8.95-.02v-10.85c0-2.37,1.64-4.19,3.95-4.33,2.83-.18,5.08,2.1,5.07,5.04l-.06,10.16Z"/>
        <polygon class="cls-66" points="172.28 133 178.59 130.56 178.59 133.75 174.32 135.09 172.47 134.35 172.28 133"/>
        <polygon class="cls-66" points="184.9 133 178.59 130.56 178.59 133.75 182.87 135.09 184.72 134.35 184.9 133"/>
      </g>
      <g>
        <path class="cls-92" d="M209.75,197.92h1.03c1.92,9.4,2.1,19.32,3.53,28.97.09.62-.09,1.28.16,1.89l-27.57.07c-.16,0-.26-.11-.26-.26.07-2.86,1.42-7.79.01-8.74l-.63-.42-.04-13.99.44-.54c.31-.38.5-1.26.27-1.87-2.53-.64-5.33-2.25-8.01-2.61l-7.13,2.47c.03.72-.06,1.15.24,1.59.35.53,1.27.61,1.84.53l-.05,14.67-31.02.14c-.24-.41-.11-.73-.05-1.21.33-.12.2.23.29.55l17.22-.03c.15-.85-.41-1.82.3-2.45l1.3-19.48,48.11.71Z"/>
        <path class="cls-84" d="M224.55,242.66c0,.6-.18,1.21.06,1.94,4.6,1.31,8.39,4.04,11.6,7.54,1,.1,1.97.16,3.03.17l13.76.12c-.23.7-1.01.54-1.38.19l-12.41.06-17.96-.03h-80.32s-27.82,0-27.82,0h-11.12c-.5,0-1.36.68-1.78-.21l10.3-.21c1.18-.02,2.24-.07,3.55-.06,2.27-2.91,4.96-5.1,8.22-6.67,3.46-1.67,6.23-11.44,17.74-8.65l-.32,2.55c-.1.83-.83,1.57-.77,2.56.12,1.79-.41,3.63.14,5.47.49,1.64,1.26,3.27.78,4.91,2.21.26,4.07-.13,6.13-.13l65.52-.03c-1.33,0,3.76.59,3.41-.08.38-.08.66.15.97.29,2.19-.04,4.41.12,6.71-.17-.13-.65-.65-.97-.84-1.47.02-.1.08-.28-.02-.49-1.31.49-2.92-2.6-4.86-3.53.17-.36-.47-2.47.18-2.42.79-.29,1.63-.26,2.66-.35.07-.46.13-.96.13-1.49v-10.13c.41.07.13-.41.43-.91l.09,12.28,3.71.7c.31-.93-.19-2.05.46-1.74Z"/>
        <path class="cls-92" d="M161.63,197.21l-1.3,19.48c-.71.63-.15,1.6-.3,2.45l-17.22.03c-.09-.32.04-.67-.29-.55.9-6.9,1.05-14.03,2.66-20.6l16.46-.81Z"/>
        <path class="cls-61" d="M224.42,229.03l.13,13.62c-.65-.31-.16.81-.46,1.74l-3.71-.7-.09-12.28c-.3.5-.02.98-.43.91,0-.52-.23-1.13-.08-1.65.13-.49.46-.91.52-1.42,1.24-.64,2.76-.12,4.12-.23Z"/>
        <path class="cls-83" d="M224.42,229.03c-1.36.11-2.88-.41-4.12.23-.18.09-.19-.34-.29-.35l-5.54-.12c-.25-.61-.07-1.27-.16-1.89,3.92-.05,7.84-.16,11.92.04.47.02.5,1.7.05,1.81-.6.15-1.34.25-1.86.29Z"/>
        <path class="cls-87" d="M214.47,228.79l5.54.12c.11,0,.11.44.29.35-.06.51-.39.93-.52,1.42l-4.35.34,1.36,13.03c.21.07.3.14.27.24-.65-.05,0,2.06-.18,2.42-.24-.07-.76-.05-.99-.02-2.66-1.73-5.66-3.03-8.52-4.45-6.49-3.23-13.27-3.34-20.47-3.31v-10.07s27.57-.07,27.57-.07Z"/>
        <path class="cls-81" d="M186.43,204.91l-.44.54c0-.76-1.15-.57-1.71-.48.05-.06-.48-.35-.66-.1-.07.1.17.21.17.37l.02,11.76c0,1.85-1.63.11-1.68,1.28.05-1.04.02,1.33.61,1.38.23.02.51-.1.57-.57.2-1.48.48.57.93.46,0,.2-.37.19-.44.47.27.03.45-.2.54.01.05.11.14.27.14.51l.1,8.22c.74.13,1.46.14,2.05-.15,0,.15.09.26.26.26v10.07c-2.85.01-5.7.44-8.52.65-.17-2.23-.12-4.4-.12-6.81l.05-28.84c-1.82.15-3.18.89-4.68,1.09-.57.08-1.49,0-1.84-.53.16.03.27.13.45.07l6.39-2.4,7.79,2.76Z"/>
        <path class="cls-30" d="M185.99,205.45l.04,13.99.63.42c1.41.95.06,5.88-.01,8.74-.59.29-1.31.28-2.05.15l-.1-8.22c0-.23-.09-.4-.14-.51-.09-.21-.28.02-.54-.01.07-.28.44-.26.44-.47l.04-14.58c.55-.1,1.7-.29,1.71.48Z"/>
        <path class="cls-40" d="M186.43,204.91l-7.79-2.76-6.39,2.4c-.18.07-.29-.04-.45-.07-.29-.44-.21-.87-.24-1.59l7.13-2.47c2.67.36,5.48,1.97,8.01,2.61.23.62.04,1.5-.27,1.87Z"/>
        <path class="cls-64" d="M186.89,238.93c7.2-.04,13.98.08,20.47,3.31-.76.55-1.26,1.44-1.19,2.38-5.81-1.84-14.89-1.62-21.18-.63-3.13.49-6.09.64-9.11,1.63,7.58-1.1,15.19-1.29,22.82.03,3.91.67,7.47,2.01,11.04,3.85,1.81.93,3.59,1.56,5.17,2.57.35.67-4.74.08-3.41.08l-65.52.03c-2.06,0-3.91.4-6.13.13.48-1.64-.3-3.27-.78-4.91-.55-1.84-.02-3.68-.14-5.47-.06-.98.66-1.73.77-2.56,0,.1.02.3.28.3l21.63.44c-.03.15-.22.24-.19.38.05.22.26.22.47.35l2.72,1.68c-.67.36-1.31-.05-1.55.68l4.96-1.12c1.44-.32,2.8-.82,4.24-1.05s2.74-.6,4.01-1c.61-.19,1.49-.43,2.11-.47,2.83-.22,5.67-.64,8.52-.65Z"/>
        <path class="cls-65" d="M176.27,240.05c-1.27.4-2.55.77-4.01,1s-2.8.72-4.24,1.05l-4.96,1.12c.24-.73.88-.32,1.55-.68l-2.72-1.68c-.2-.13-.42-.13-.47-.35-.03-.14.16-.23.19-.38l12.3-.2c.87-.01,1.63-.02,2.36.12Z"/>
        <g>
          <path class="cls-55" d="M178.37,239.58c-.62.05-1.5.28-2.11.47-.73-.14-1.49-.14-2.36-.12l-12.3.2-21.63-.44c-.25,0-.27-.21-.28-.3l.32-2.55c.92-.35.78-1.66.99-2.5l1.35-5.52c.17-.71.55-3.52.32-4.38-.47-1.73.2-4.08-.11-4.61l31.02-.14.05-14.67c1.49-.2,2.85-.94,4.68-1.09l-.05,28.84c0,2.41-.05,4.59.12,6.81Z"/>
          <path class="cls-91" d="M150.2,226.87c-.25.07-.56.08-.55-.08,0-.12.27-.35.48-.38.53-.03.52.21.08.46Z"/>
          <path class="cls-9" d="M152.32,225.93c-.25.06-.56.07-.55-.08,0-.11.27-.35.48-.38.53-.03.52.21.08.46Z"/>
          <path class="cls-4" d="M154.44,224.98c-.25.06-.56.06-.55-.07,0-.12.27-.36.48-.38.53-.03.52.21.08.46Z"/>
          <path class="cls-53" d="M156.09,224.28c-.25.07-.56.08-.55-.08,0-.11.27-.35.48-.38.53-.03.52.21.08.46Z"/>
        </g>
        <path class="cls-55" d="M206.17,244.61c1.58.5,3.15,1.66,4.56,2.53,1.63,1,2.93,2.74,4.7,3.57-.01.28.09.53,0,1.01.35.07.55.33.45.64-.31-.14-.59-.37-.97-.29-1.58-1.01-3.36-1.64-5.17-2.57-3.56-1.84-7.13-3.18-11.04-3.85-7.63-1.32-15.24-1.13-22.82-.03,3.02-.99,5.98-1.14,9.11-1.63,6.28-.99,15.37-1.21,21.18.63Z"/>
        <path class="cls-55" d="M219.77,230.68c-.14.52.08,1.13.08,1.65v10.13c0,.52-.07,1.03-.14,1.49-1.03.09-1.87.06-2.66.35.03-.1-.06-.16-.27-.24l-1.36-13.03,4.35-.34Z"/>
        <path class="cls-54" d="M215.88,246.69c.23-.03.75-.05.99.02,1.94.94,3.55,4.02,4.86,3.53.09.21.04.39.02.49-.11.1-.22-.06-.32-.14l-6,.12c-1.77-.83-3.08-2.57-4.7-3.57,1.35-.27,3.87-.27,5.15-.45Z"/>
        <path class="cls-80" d="M221.75,250.73c.19.5.71.82.84,1.47-2.3.28-4.52.13-6.71.17.1-.31-.09-.57-.45-.64.09-.48-.01-.73,0-1.01l6-.12c.1.08.2.24.32.14Z"/>
        <path class="cls-23" d="M215.88,246.69c-1.28.18-3.8.18-5.15.45-1.41-.87-2.98-2.03-4.56-2.53-.07-.94.44-1.83,1.19-2.38,2.86,1.42,5.86,2.72,8.52,4.45Z"/>
        <path class="cls-21" d="M184.28,204.97l-.04,14.58c-.46.11-.74-1.94-.93-.46-.06.48-.35.59-.57.57-.59-.05-.56-2.42-.61-1.38.05-1.17,1.68.57,1.68-1.28l-.02-11.76c0-.16-.24-.27-.17-.37.18-.25.71.03.66.1Z"/>
      </g>
      <polygon class="cls-66" points="177.61 130.94 178.59 130.56 179.45 130.89 179.51 134.04 178.59 133.75 177.88 133.97 177.61 130.94"/>
    </g>
  </g>
  <polygon class="cls-92" points="160.4 103.07 192.79 103.07 193.08 129.51 162.99 129.13 160.4 103.07"/>
  <polyline class="cls-92" points="161.63 197.21 196.98 197.18 196.98 199.22"/>
  <polyline class="cls-15" points="201.56 103.07 214.16 228.63 198.8 229.11 189.58 103.07"/>
  <polyline class="cls-15" points="166.25 103.07 157.04 229.11 141.67 228.63 154.27 103.07"/>
  <g class="cls-90">
    <g id="Generative_Object-2" data-name="Generative Object">
      <path class="cls-93" d="M197.32,199.47c-.14-.23.23-.21.51-.18.17.23-.31.15-.51.18Z"/>
      <path class="cls-93" d="M200.84,198.84c.07.15-.08.3-.38.2-.16-.05-.32-.01-.48,0-.08-.13.06-.23.22-.26.26-.04.48,0,.64.06Z"/>
      <g>
        <path class="cls-43" d="M389.5,268.97v3.68h-1.3c-7.1,0-13.95.63-20.89,1.7-8.06,1.24-15.34,3.32-22.54,5.65-.64.21-1.31.42-1.3.76-6.61,2.28-12.63,5.11-18.7,7.81-.75-.25-.83.28-1.36.44-30.7,8.99-69.06,13.33-103.83,12.86-16.58-.23-32.49-1.67-48.32-4.26.29-.63,1.19-.06,1.65-.06,4.21.02,8.15.19,12.12-.05l1.98-.12c12.79-.79,25-2.52,37.26-4.73l17.12-3.09c10.78-1.95,21.47-3.27,32.58-3.98,1.72-.11,3.34-.03,4.99-.19,2.06-.21,4.3-.05,6.39,0l6.61.19c5.04.15,10.37.96,14.97,1.09.32.43,1.39.27,2.2.14-.64-.36-1.53,0-2.2-.14-2.79-.59-5.89-.76-9.13-1.01l-3.76-.29c-4.89-.37-12.65-.52-17.65-.25l-6.01.33c-11.86.64-22.96,2.47-34.26,4.54l-14.08,2.58c-10.86,1.99-21.54,3.73-32.86,4.35l-5.58.3c-3.06.17-6.32.24-9.4,0-3.73-.28-3.14.31-5.98-.18-18.07-3.15-35.93-8.28-51.63-13.66l5.1-4.07,14.32,3.13c19.36,4.24,40.01,5.52,60.97,4.27,18.19-1.08,35.46-4.27,52.14-7.95l6.1-1.35,12.14.41c4.9.17,9.43.54,14.39.82,18.62,1.06,36.66-.2,54.32-3.64,18.13-3.53,34.14-6.62,53.46-6.04Z"/>
        <path class="cls-7" d="M389.5,294.23v23.55l-21.75-1.6c-12.76-.94-25.21-1.23-37.76-.98-5.96-.47-11.82.02-17.85.28-4.01.17-7.75.43-11.37,1.34-4.39,1.1-23.01,1.48-29.44,2.42-.07-.41.72-.31.4-.53,9.07-1.17,18.11-2.24,27.35-3.76l25.24-4.14c15.99-2.62,46.52-10.5,61.34-13.45-4.51.54-8.37,1.53-12.56,2.43l-38.33,8.21c-5.14,1.1-9.63,2.07-14.8,2.9l-26.56,4.26-12.15,1.63c-14.24,1.91-27.82,3.05-42.76,3.33-28.1.52-55.77-3.3-79.42-9.85-.38-.11-.7.04-1.03-.08-.13-.05-.32.13-.25.24l-1.73-.56c.03-.12.39-.25.91-.17,25.3,3.86,51.36,4.56,77.29,2.11,9.47-.89,18.28-1.9,27.33-3.41l35.81-5.98,22.13-3.31c21.02-3.14,48.7-6.07,69.96-4.87Z"/>
        <path class="cls-52" d="M113.37,277.23c-.71,1.15-2.35,2.44-4.08,3.41.38.38-.06.33-.2.18-.25-.27-.61-.04-.49.11-18.49-5.23-32.03-8.85-52.94-11.6-18.25-2.4-36.57-2.53-54.79-.92-.27-.04-.54-.03-.43.18-.13-.02-.29.04-.43.02v-9.03c.35-.07.76.09,1.34.05,12.98-.9,25.75-.75,38.64.63,8.77.94,16.73,2.55,24.66,4.57l10.46,2.67,38.28,9.73Z"/>
        <path class="cls-68" d="M1.74,235.59c2.05.23,4.51-.32,6.52,0s3.95.16,6.27.4l-14.53,2.69v-3.09c.57.04,1.18-.06,1.74,0Z"/>
        <path class="cls-95" d="M129.98,227.76c2.4-.08,4.83.21,7.39.49l11.78,1.29c.22,1.76-1.22,2.23-1.31,3.39l-9.91-1.93c-2.5-.49-4.77-1.16-7.14-1.59-1.6-.29-2.62-.89-3.85-1.37.57-.43,2.08-.26,3.04-.29Z"/>
        <g>
          <path class="cls-79" d="M181.24,208.06c-16.01,7.36-39.49,15.38-60.45,17.67,2.07,1.03,4.27,1.58,6.14,2.31,1.24.48,2.25,1.08,3.85,1.37-.16.08-.17.21-.01.29,7.66,3.95,16.23,7.41,25.8,10.31,12.33,3.74,25.5,5.89,39.4,6.84,16.94,1.16,33.88.96,50.91-.41,4.95-.4,10.23-.25,14.74-1.49l30.45-8.37c9.87-2.71,19.97-4.4,30.91-5.36,23.25-2.03,45.87,1.08,66.51,6.5v14.15c-26.21-2.29-48.44.85-71.74,6.98l.2-.61c.57-1.73-35.4-1.94-65.28,6.38l-18.05,5.03c-36.21-.77-64.43-11.19-93.09-22.34l-24.18-9.41c-8.35-3.25-16.53-6.03-25.5-8.59-29.28-8.33-60.4-9.53-91.87-4.91v-9.98c1.1.02,2.2.02,3.42-.1,2.47-.26,5.01-.09,7.63-.23,8.15-.44,14.99.1,22.66.12-5.67-.71-19.37-.58-25.25-.38l-6.1.21c-.81.03-1.61.27-2.36.15v-8.79c8.74-1.35,17.61-2.14,26.93-2.3,5.65-.1,10.9-.41,16.56-.22,10.51.35,20.43,1.5,30.41,3.38l25.65,4.82c27.48,5.16,55.81,3,81.69-3.04Z"/>
          <g>
            <path class="cls-79" d="M0,214.45v-.24c.75.13,1.55-.12,2.36-.15l6.1-.21c5.88-.2,19.58-.34,25.25.38-7.67-.02-14.51-.56-22.66-.12-2.62.14-5.16-.02-7.63.23-1.23.13-2.32.12-3.42.1Z"/>
            <path class="cls-79" d="M227.05,258.25c-6.97.33-14.11.99-22.01.45,3.13-.33,6.37.23,9.53-.2,2.02-.27,3.97-.17,5.93-.25l4.54-.2,4.22-.26,5.2-.22c1.88-.08,3.91-.09,5.98-.06-1.2.44-2.5.19-3.85.26l-5.42.28-4.11.19Z"/>
            <path class="cls-79" d="M351.68,248.42c-1.5-.15-2.91-.7-4.38-1.13-6.03-1.76-12.17-2.79-18.69-3.56,8.52.21,16.12,2.31,23.07,4.69Z"/>
            <path class="cls-79" d="M324.78,239.93c-6.73,1-13.17,2.15-19.67,3.43,6.28-1.82,12.77-2.91,19.67-3.43Z"/>
            <path class="cls-79" d="M326.08,239.85l1.39-.65c.8.51,1.88.03,2.68-.04,1.12-.1,3.17,0,4.39-.27,1.11-.24,3.01.2,4.57.1-2.47.47-5.12.31-7.65.5-1.72.13-3.18.35-5.38.36Z"/>
            <path class="cls-79" d="M328.21,243.58c-1.13.16-2.39.16-3.67-.06-2.01-.35-4.16.25-6.45-.35,3.26-.84,4.93.54,7.85-.15.14.75,1.16.19,2.27.56Z"/>
            <path class="cls-79" d="M203.95,258.79c-1.27-.26-2.55-.06-4.01-.19l-3.5-.3c1.38-.28,2.8-.1,4.26-.11.86.63,2.35-.32,3.25.61Z"/>
            <path class="cls-79" d="M351.68,248.42c1.96.19,3.12.96,4.84,1.33.87.92-6.37-1.6-4.84-1.33Z"/>
            <path class="cls-79" d="M243.2,264.93c.29-.24,1.13-.23,1.5-.09.28.11.4.3.1.58-.16.15-.59.24-1.13.21-.48-.03-.88-.37-.47-.7Z"/>
            <path class="cls-79" d="M190.84,257.68c.94.29,2.42-.34,2.86-.04.56.4,1.81.16,2.39.45-1.91.14-3.74-.07-5.25-.41Z"/>
            <path class="cls-79" d="M190.84,257.68c-.72-.11-1.63.3-2.44-.31,1.02-.16,1.86.13,2.44.31Z"/>
          </g>
        </g>
        <g>
          <path class="cls-31" d="M234.64,269.68c-7,1.95-13.94,4.35-21.78,5.53-3.61.54-14.35.28-18.59.05-10.84-.6-20.85-2.28-30.8-4.55-12.07-2.75-22.78-6.33-33.95-10.18-12.08-4.17-24.28-7.39-37.27-10.01-11.13-2.24-22.64-3.55-34.5-4.37-8.01-.55-25.05-.46-33.13.03l-5.03.31c-3.58.22-6.97.32-10.47.95,4.37-.13,8.7-.52,13.16-.82,3.75-.25,7.7-.27,11.39-.44,7.63-.34,14.72-.11,22.07.24l4.2.2c25.41,1.21,54.3,8.84,76.06,16.54,18.04,6.38,40.29,12.01,62.56,12.68l11.01.33c-10.43,1.91-20.96,3.42-32.21,4.18-24.1,1.64-48.07-.76-68.74-7.98-8.22-2.87-15.82-5.56-24.36-7.77-12.17-3.14-24.94-5.68-38.21-6.63,26.27,3.35,40.22,6.74,63.33,15.21,8.04,2.95,15.74,5.71,24.25,8.19.53.15,1.59-.04,1.51.62-9.64-2-18.39-4.44-27.75-6.95l-40.31-10.82c-19.63-5.27-45.96-7.14-67.07-4.88v-6.41c5.14-.42,10.36-.58,15.54-.77l3.6-.13c5.29-.2,10.36-.02,15.52.07,23.88.41,47,3.4,68.34,9.54l27.47,7.91c11.83,3.41,23.65,5.82,36.42,7.17.49.05.89,0,1.13.18.12.09.63-.28.64-.44-10.76-.66-27.48-4.3-37.74-7.28l-25.73-7.49c-22.33-6.5-46.41-9.76-71.41-10.06-6.16-.07-12.21-.18-18.26-.04-5.18.12-10.4.19-15.53.64v-13.54l14.53-2.69c-2.32-.24-4.25-.08-6.27-.4,5.99-.12,8.74-.02,14.78.12,20.08.45,36.33,1.1,53.63,5.5,8.17,2.08,15.52,4.54,23.39,7.28-2.91-1.67-6.57-2.62-10.07-3.82-23.51-8.06-43.66-9.29-73.02-9.64-.01-.57-.55-.36-.55,0l-12.32.17c-.81.01-1.6.26-2.37.15-.55-.08-1.18.05-1.74,0v-10.93c31.47-4.62,62.59-3.42,91.87,4.91,8.98,2.55,17.15,5.34,25.5,8.59l24.18,9.41c28.66,11.15,56.88,21.57,93.09,22.34Z"/>
          <g>
            <path class="cls-71" d="M15.53,251.57c-.1.18-.07.4.01.59-5.18.19-10.4.35-15.54.77v-.71c5.12-.45,10.35-.53,15.53-.64Z"/>
            <path class="cls-73" d="M15.54,252.16c-.08-.18-.11-.41-.01-.59,6.04-.14,12.1-.03,18.26.04,25,.3,49.08,3.57,71.41,10.06l25.73,7.49c10.26,2.99,26.98,6.63,37.74,7.28,0,.16-.52.53-.64.44-.24-.18-.65-.13-1.13-.18-12.77-1.35-24.59-3.76-36.42-7.17l-27.47-7.91c-21.34-6.14-44.47-9.13-68.34-9.54-5.16-.09-10.23-.27-15.52-.07l-3.6.13Z"/>
            <path class="cls-20" d="M8.26,235.59c-2.01-.32-4.47.23-6.52,0v-.24c.77.11,1.56-.14,2.37-.15l12.32-.17c0-.37.54-.58.55,0,29.36.35,49.51,1.59,73.02,9.64,3.5,1.2,7.16,2.15,10.07,3.82-7.87-2.74-15.22-5.2-23.39-7.28-17.3-4.4-33.55-5.05-53.63-5.5-6.04-.14-8.79-.24-14.78-.12Z"/>
            <path class="cls-56" d="M113.9,240.58c-.44.08-.83-.08-1.3-.24l-9.49-3.13c-14.54-4.79-29.86-8.03-47.1-9.13-1.79-.11-3.57.03-5.25-.25s-3.19.15-4.72-.25c2.68-.23,9.18.08,11.7.26,21.75,1.58,38.59,6.16,56.15,12.73Z"/>
            <path class="cls-85" d="M144.76,263.86c.86-.06,1.7.19,2.67.42,11.95,2.81,24.23,4.55,36.89,5.94-13.65-.76-26.45-3.23-38.82-6-.18-.04-.38-.08-.52-.14-.15-.06-.25-.13-.22-.23Z"/>
            <path class="cls-8" d="M72.24,236.05l-10.57-1.46c.34-1.09,10.02,1.16,10.57,1.46Z"/>
            <path class="cls-85" d="M144.76,263.86c.17.1-.29.04-1.03-.11-.51-.1-1.16-.24-1.83-.4-2.02-.47-4.28-1.09-3.73-1.15,2.53.36,4.49,1,6.58,1.66Z"/>
          </g>
        </g>
        <path class="cls-62" d="M233.98,332.13c0,.59,1.36.08,2.23.65-22.71,2.4-53.67,2.74-75.75-2.41l-21.86-5.1c-19.72-4.6-40.15-7.12-61.49-5.81-1.93.12-3.8.48-5.74.35s-3.94.26-5.86.5c-13.78,1.77-26.81,4.27-39.86,7.59l-23.91,6.07c-1.58.85.52-11.16-1.2-9.68.28-.24,1.29-.8.85-1.08,6.65-1.38,13.14-2.83,19.91-4.48,21.82-5.32,41.17-9.81,65.64-9.49,23.59.31,43.9,4.35,65.22,9.5,11.22,2.71,21.87,5.29,33.48,7.52,15.9,3.06,31.86,5.04,48.34,5.85Z"/>
        <g>
          <path class="cls-55" d="M233.98,332.13c6.94.34,14-.02,21.18-.32l22.21-.94c22.38-.95,41.43,3.22,60.77,7.98l24.47,6.01H1.77l-.25-9.23c-.02-.6-.03-1.15.21-1.64l23.91-6.07c13.05-3.31,26.09-5.81,39.86-7.59,1.92-.25,3.84-.63,5.86-.5s3.81-.24,5.74-.35c21.34-1.31,41.77,1.21,61.49,5.81l21.86,5.1c22.08,5.15,53.04,4.81,75.75,2.41-.87-.57-2.24-.06-2.23-.65Z"/>
          <path class="cls-41" d="M271.31,339l-3.53.2-14.82.95,1.91-.69c.87.37,2.15,0,3.13-.07l3.07-.19c.81-.05,2.33-.23,3.21-.28l4.49-.27c2.33-.14,4.76.17,7.01-.07,2.36-.25,5.1-.08,7.49,0l6.11.21c2.08.07,4.05.1,6.26.5-1.14.25-2.42.11-3.71-.02-3.41-.34-16.74-.48-20.63-.26Z"/>
          <path class="cls-57" d="M310.33,341.22c-1.51.1-2.87-.12-4.31-.56,1.45-.08,2.81.19,4.31.56Z"/>
          <path class="cls-59" d="M302.19,340.01c-1.54.29-2.53-.16-4.02-.26,1.33-.35,2.69-.04,4.02.26Z"/>
        </g>
        <path class="cls-10" d="M271.73,318.71c-3.35.43-6.82.56-10.48.87-36.27,3.05-65.69.1-96.65-7.49l-6.8-1.67c-.07-.11.12-.28.25-.24.33.12.65-.03,1.03.08,23.64,6.55,51.32,10.37,79.42,9.85,14.94-.28,28.52-1.42,42.76-3.33l12.15-1.63,26.56-4.26c5.16-.83,9.66-1.8,14.8-2.9l38.33-8.21c4.19-.9,8.06-1.89,12.56-2.43-14.82,2.95-45.35,10.83-61.34,13.45l-25.24,4.14c-9.24,1.52-18.28,2.59-27.35,3.76Z"/>
        <g>
          <path class="cls-22" d="M134.73,305.43l21.34,4.42,1.73.56,6.8,1.67c30.96,7.59,60.37,10.54,96.65,7.49,3.66-.31,7.13-.44,10.48-.87.32.23-.47.13-.4.53,6.43-.94,25.06-1.32,29.44-2.42,3.62-.91,7.35-1.17,11.37-1.34,6.03-.26,11.89-.75,17.85-.28,12.55-.26,25,.04,37.76.98l21.75,1.6v5.23c-.54-.01-.98-.11-1.48-.16-8.75-.86-23.23-.66-32.87-.6l-24.37.16,23.82.18,16.64.12c5.68.04,11.1.24,16.51.53.66.03,1.08.28,1.75.25v14.25c-11.94-.73-23.66-1.88-35.99-3.77l-18.8-2.89c-12.37-1.9-24.4-3.34-37.08-3.9-5.58-.25-17.92-.2-23.19.22-1.68.13-11.12.47-11.05,1.1l4.19-.37,4.26-.26c1.36-.08,2.73.02,4.14-.19,2.19-.33,4.44-.06,6.77-.24,4.72-.38,12.02.03,16.86.24l4.14.18c2.37.1,4.64.39,7.07.62,20.98,2.02,44.82,6.96,63.92,8.61l3.34.29,11.44.85v6.65h-26.9l-24.47-6.01c-19.34-4.75-38.39-8.93-60.77-7.98l-22.21.94c-7.19.31-14.24.66-21.18.32-16.48-.81-32.44-2.79-48.34-5.85-11.61-2.23-22.26-4.81-33.48-7.52-21.32-5.14-41.63-9.19-65.22-9.5-24.48-.32-43.82,4.16-65.64,9.49-6.77,1.65-13.26,3.1-19.91,4.48-.43.09-.96.09-1.38.25v-14.01l22.61-3.74c7.73-1.28,14.78-2.57,22.63-3.62,22.06-2.96,44.74-3.09,66.88-.15,7.86,1.04,15.38,1.98,22.61,3.48Z"/>
          <path class="cls-36" d="M389.5,337.73v.48l-11.44-.85-3.34-.29c-19.1-1.65-42.94-6.59-63.92-8.61-2.43-.23-4.71-.52-7.07-.62l-4.14-.18c-4.84-.21-12.14-.61-16.86-.24-2.33.19-4.58-.08-6.77.24-1.41.21-2.78.11-4.14.19l-4.26.26-4.19.37c-.07-.63,9.37-.97,11.05-1.1,5.27-.42,17.62-.47,23.19-.22,12.68.56,24.71,2,37.08,3.9l18.8,2.89c12.33,1.89,24.06,3.05,35.99,3.77Z"/>
          <path class="cls-46" d="M279.72,322.22l-15.88,2.13c-3.9.52-7.71.8-11.71,1.06l-5.06.32c-2.32.15-4.5.07-6.85.23-5.26.35-12.05.04-17.4-.23l-5.89-.3-8.8-.75c-14.53-1.25-28.53-3.91-41.67-7.34,12.99,2.56,25.45,5.26,39.1,6.62,3.78.38,7.18.76,10.94.99l5.05.31c5.81.35,14.94.51,20.83.24,1.96-.09,3.84-.06,5.71-.22,3.32-.27,6.52-.49,9.87-.75l3.76-.29,17.22-2.28c.5-.07,1.21.21.77.27Z"/>
          <path class="cls-78" d="M388.03,322.84c-.09.12-.47.25-.27.38-5.41-.28-10.83-.49-16.51-.53l-16.64-.12-23.82-.18,24.37-.16c9.65-.06,24.12-.26,32.87.6Z"/>
        </g>
        <path class="cls-52" d="M121.66,279.3l-5.1,4.07c-2.44-.83-5.41-1.73-7.96-2.45-.13-.15.24-.38.49-.11.14.15.59.2.2-.18,1.73-.97,3.36-2.26,4.08-3.41,2.72.69,5.5,1.46,8.29,2.07Z"/>
        <g>
          <path class="cls-55" d="M108.6,280.93c2.55.72,5.53,1.61,7.96,2.45,15.71,5.38,33.57,10.51,51.63,13.66,2.83.49,2.24-.09,5.98.18,3.09.23,6.34.16,9.4,0l5.58-.3c11.32-.62,21.99-2.36,32.86-4.35l14.08-2.58c11.3-2.07,22.4-3.9,34.26-4.54l6.01-.33c5-.27,12.75-.13,17.65.25l3.76.29c3.24.25,6.34.42,9.13,1.01-4.6-.12-9.93-.94-14.97-1.09l-6.61-.19c-2.09-.06-4.33-.22-6.39,0-1.65.17-3.27.08-4.99.19-11.11.71-21.8,2.03-32.58,3.98l-17.12,3.09c-12.26,2.21-24.46,3.94-37.26,4.73l-1.98.12c-3.97.25-7.9.07-12.12.05-.46,0-1.37-.57-1.65.06,15.83,2.59,31.74,4.04,48.32,4.26,34.77.47,73.13-3.87,103.83-12.86.53-.16.61-.69,1.36-.44-3.1,1.38-5.87,3.07-8.99,4.64l-18.36,9.2-35.81,5.98c-9.04,1.51-17.86,2.51-27.33,3.41-25.93,2.45-52,1.75-77.29-2.11-.52-.08-.88.05-.91.17l-21.34-4.42c0-.25-.14-.53-.83-.72-17.18-4.86-31.82-10.48-49.16-15.39-27.36-7.75-53.08-10.88-83.44-8.6-.77-.79,0-1.58.19-2.46.45-2.05.25-6.49-.35-8.41-.05-.16-.3-.3-.32-.43-.02-.17-.53-.1-.83-.1v-.71c.14.03.3-.04.43-.02.25.04.49-.02.43-.18,18.21-1.61,36.54-1.48,54.79.92,20.91,2.75,34.45,6.37,52.94,11.6Z"/>
          <path class="cls-82" d="M161.42,304.6c1.75-.51,3.76-.15,4.69.87.77.84.34,1.99-1.58,2.58-1.53.47-3.69.16-4.64-.81-.89-.9-.32-2.1,1.53-2.64Z"/>
        </g>
        <path class="cls-55" d="M306.91,286.66c.67.14,1.56-.22,2.2.14-.8.13-1.87.29-2.2-.14Z"/>
        <path class="cls-95" d="M173.45,231.08c8.72.1,17.42.65,26.08,1.19-1.77.78,5.39.14,6.14.31.47.49,1.81.32,3.05.45,17.01,1.77,34.14,1.58,50.8-.45-.2.43,1.6-.17,1.8.52.03.09,0,.21-.03.32-12.83,2.83-29.33,4.77-43.28,5.36-6.88.29-18.84.21-25.82-.21-15.35-.92-30.21-2.88-44.35-5.63.09-1.17,1.53-1.63,1.31-3.39,8.05.88,16.09,1.44,24.3,1.54Z"/>
        <g>
          <path class="cls-11" d="M357.7,214.11c10.85-.11,21.38.97,31.8,2.58v21.05c-20.64-5.42-43.27-8.53-66.51-6.5-10.94.95-21.05,2.64-30.91,5.36l-30.45,8.37c-4.51,1.24-9.8,1.1-14.74,1.49-17.03,1.37-33.97,1.56-50.91.41-13.89-.95-27.06-3.09-39.4-6.84-9.57-2.91-18.14-6.37-25.8-10.31,17.93,4.23,36.67,7.7,56.47,8.98l5.19.34c6.85.44,18.02.48,24.99.24,15.8-.56,30.61-2.47,46.1-5.63-.5-.45-1.56-.11-2.23-.22.04-.11.06-.23.03-.32-.2-.69-2-.09-1.8-.52,7.76-.94,15.08-2.62,22.62-4.56l31.3-8.07c12.2-3.15,31.23-5.7,44.26-5.84Z"/>
          <path class="cls-86" d="M147.84,232.94c14.13,2.75,29,4.71,44.35,5.63,6.98.42,18.94.51,25.82.21,13.95-.59,30.45-2.53,43.28-5.36.67.11,1.73-.24,2.23.22-15.49,3.16-30.29,5.07-46.1,5.63-6.96.25-18.13.21-24.99-.24l-5.19-.34c-19.8-1.28-38.54-4.75-56.47-8.98-.16-.08-.14-.21.01-.29,2.37.43,4.64,1.1,7.14,1.59l9.91,1.93Z"/>
          <path class="cls-27" d="M264.82,232.91l16.28-3.16,9.12-1.86,11.89-2.79c7.21-1.69,24.61-4.72,33.08-4.08-9.17.32-17.98,1.26-26.57,3.16l-25.97,5.73c-6.26,1.38-12.18,2.7-18.72,3.59-.09-.21.46-.5.89-.58Z"/>
        </g>
        <path class="cls-33" d="M165.19,200.5c.06.09.1.19.05.29-1.65.02-3.55.11-5.17.28.09-.16-.07-.32-.5-.38l-10.92-1.5c-7.49-1.03-15.1-.5-22.58.51-5.22.7-9.94,1.84-15.24,2.29-2.21,0-4.64-1.09-6.4-1.7,2.27-.95,4.2-1.51,6.46-1.92l9.51-1.76c2.73-.5,5.37-.65,8.21-.83,7.51-.48,14.66.78,21.78,2.02,5.35.94,9.44,2.18,14.8,2.69Z"/>
        <g>
          <path class="cls-14" d="M389.5,251.89v17.08c-19.31-.58-35.33,2.51-53.46,6.04-17.66,3.44-35.7,4.7-54.32,3.64-4.96-.28-9.49-.66-14.39-.82l-12.14-.41,36.47-10.92c8.9-2.66,17.27-5.3,26.1-7.63,23.3-6.13,45.53-9.27,71.74-6.98Z"/>
          <path class="cls-77" d="M350.93,261.84c-16.15.82-27.47,3.4-41.31,7.03-1.8.47-3.25,1.25-5.67,1.35,11.77-3.82,30.96-8.08,45.62-8.64l5.74-.22c2.25-.09,4.85-.26,7.07.01,1.25.15,5.33.08,8.05.42-1.38.51-2.9-.05-4.36-.05-5.21,0-10.13-.17-15.14.09Z"/>
          <path class="cls-60" d="M297.34,271.93l-20.46,5.5c.21-.56,14.41-4.14,14.63-4.19,2.06-.41,4.57-1.43,5.83-1.31Z"/>
          <path class="cls-60" d="M297.34,271.93c.4-.45,1.16-.66,1.75-.36-.68.27-1.31.29-1.75.36Z"/>
        </g>
        <g>
          <path class="cls-58" d="M134.73,305.43c-7.23-1.5-14.75-2.44-22.61-3.48-22.14-2.93-44.82-2.81-66.88.15-7.84,1.05-14.9,2.34-22.63,3.62l-22.61,3.74v-28.5c.45.01,1.01-.07,1.31-.24,30.36-2.28,56.08.85,83.44,8.6,17.34,4.91,31.98,10.53,49.16,15.39.68.19.82.48.83.72Z"/>
          <path class="cls-6" d="M80.42,291.17c-3-.34-18.4-6.48-42.53-8.33-5.47-.42-17.93-.71-22.92-.35l-11.97.87,1.91-.68c.68.43,5.88-.34,8.71-.44l5.69-.2c2.96-.11,6.27-.24,9.21,0,2.05.17,3.98-.02,5.92.23,1.25.16,2.46.11,3.74.21,15.49,1.24,29.21,4.24,42.24,8.68Z"/>
          <path class="cls-6" d="M80.42,291.17c1.74.2,3.04.84,4.44,1.37-1.9-.11-3.41-.73-4.44-1.37Z"/>
        </g>
        <g>
          <path class="cls-17" d="M64.77,190.28c14.07,2.01,30.54,7.96,35.7,8.81,5.69.94,17.69-3.77,29.98-3.71.88,0,1.57-.22,2.61-.03,1.48.27,3.15.03,4.63.18,6.21.65,12.11,1.58,17.94,2.98.94.23,12.58,2.2,9.55,2-5.36-.51-9.44-1.75-14.8-2.69-7.12-1.25-14.27-2.5-21.78-2.02-2.84.18-5.48.32-8.21.83l-9.51,1.76c-2.26.42-4.19.97-6.46,1.92,1.76.61,4.19,1.69,6.4,1.7,5.31-.45,10.03-1.59,15.24-2.29,7.48-1.01,15.09-1.54,22.58-.51l10.92,1.5c.43.06.59.22.5.38-4.24.45-8.5.79-12.84,1.43-10.9,1.61-21.62,3.53-31.63,5.98-6.38-1.09-12.06-3.24-17.78-5.41l-10.05-3.82c-9.14-3.47-19.42-5.85-30.48-6.32l-5.28-.22c-5.49-.23-5-.13-10.75.27l14.69.2c11.95.16,22.9,3.05,32.69,6.79l12.07,4.61c4.51,1.72,9.24,3.17,14.48,4.22.32.06.52.1.69.17.31.14.74-.07.63-.25,5.52,2.01,21.43,1.15,27.38.34,3.06-.2,6.1-.55,9.26-.95l22.91-2.9c5.23-.66,10.18-1.28,15.23-1.68-3.25,1.4-6.14,3.62-10.05,4.53-25.88,6.04-54.22,8.2-81.69,3.04l-25.65-4.82c-9.98-1.88-19.9-3.03-30.41-3.38-5.66-.19-10.91.12-16.56.22-9.32.16-18.19.95-26.93,2.3v-9.5c4.94-1.46,9.75-2.85,15.26-4.06,16.03-3.53,33.07-3.94,49.52-1.59Z"/>
          <path class="cls-35" d="M199.98,199.03c.16-.01.33-.04.48,0,.21.3-7.73,3.96-7.88,4.01l-15.23,1.71-28.2,3.5-4.38.52c-.57-.04-1.03-.04-.88.29-5.95.81-21.86,1.67-27.38-.34-.22-.08-.62-.2-.91-.25,10.01-2.45,20.73-4.37,31.63-5.98,4.35-.64,8.6-.99,12.84-1.43,1.62-.17,3.52-.26,5.17-.28l19.31-.21,4.98-.32c2.63-.17,5.19-.49,7.79-.79.2-.02.67.06.51-.18.74.09,1.43-.21,2.15-.26Z"/>
          <path class="cls-5" d="M115.6,208.49c.29.05.69.16.91.25.11.18-.33.38-.63.25-.17-.07-.37-.11-.69-.17-5.24-1.05-9.97-2.5-14.48-4.22l-12.07-4.61c-9.79-3.74-20.74-6.63-32.69-6.79l-14.69-.2c5.75-.4,5.26-.5,10.75-.27l5.28.22c11.06.47,21.34,2.84,30.48,6.32l10.05,3.82c5.72,2.17,11.4,4.32,17.78,5.41Z"/>
          <path class="cls-5" d="M192.58,203.05c-.34.12-.76.44-1.29.49-5.05.4-10.01,1.02-15.23,1.68l-22.91,2.9c-3.16.4-6.2.75-9.26.95-.15-.34.31-.33.88-.29l4.38-.52,28.2-3.5,15.23-1.71Z"/>
          <g>
            <path class="cls-37" d="M355.16,196.87c-.02.41,4.5,1.47,5.66,1.7-.27-.48-1.04-.59-1.59-.77.39-.17.37-.43.27-.69,8.78,3.14,18.59,5.53,28.74,7.07.42.06.77.31,1.27.24v7.18c-20.94-3.48-33.73-9.46-56.05-12.83-10.47-1.58-20.52-2.65-31.32-3.01-23.02-.75-45.37,1.65-65.63,7.7l-21.14,6.31-17.34,4.96c-5.73,1.64-11.68,2.69-18.07,3.45-.72.09-1.46.18-1.64-.19.68-.26,1.12-.87,1.68-1.17,3.55-1.5,7.09-3.13,9.97-4.99.88-.4,2-.77,2.58-1.36.35-.02.77-.04.55-.27l18.64-9.98c7.41-3.97,15.37-7.09,24.31-9.98,17.96-5.83,38.45-8.03,59.15-6.36,17.85,1.43,31.1,4.85,45.24,8.91l7.68,2.2c2.38.68,4.63,1.44,7.04,1.87Z"/>
            <path class="cls-75" d="M389.5,214.31v2.38c-10.42-1.61-20.95-2.69-31.8-2.58-.36-.66-1.87-.85-2.97-1.08-22.41-4.58-43.3-5-68.27.05-16.84,3.4-31.76,8.88-48.29,13.07-12.48,3.16-25.44,5.5-38.63,6.12-8.66-.54-17.36-1.09-26.08-1.19l3.45-.67c4.79-.39,9.65-.97,13.94-2.12,2.01-.22,3.8-.7,5.64-1.16.72-.18,1.86-.49,2.62-.63,2.11-.4,5.8-1.3,7.39-2.02-.32.23,5.93-1.45,4.84-1.45,1.24-.14,2.54-.68,3.41-1.15.55.02,3.91-1.07,4.35-1.47.68-.01,4.17-1.25,3.91-1.43.56-.07,1.06-.19,1.3-.44.92-.2,2.14-.47,2.61-.99.91-.07,2.2-.49,2.61-.95.72.02,2.91-.96,3.04-1.19.8-.05,2.35-.5,2.61-.95.96-.07,2.12-.5,2.61-.95l14.34-4.76c2.67-.89,5.51-1.42,7.79-2.37,2.04-.2,3.76-.9,5.68-1.28,8.24-1.64,16.55-3.06,25.64-3.43,10.65-.44,20.81-.2,31.31.89,23.84,2.47,35.52,4.48,57.47,9.68,3.24.77,6.18,1.66,9.48,2.09Z"/>
            <path class="cls-39" d="M389.5,200.88v2.89l-1.23-.13c-11.02-1.12-32.56-8.77-40.07-10.81-.18-.62-1.86-.53-1.74-1.19l15.68,4.11c8.88,2.33,17.96,4.06,27.35,5.12Z"/>
            <path class="cls-34" d="M346.03,191.65c-.25.74,1.18.92,2.17,1.19.13.45,1.12.64,1.82.89l9.48,3.39c.1.25.12.51-.27.69-.65-.21-1.8-.26-2.36-.64-.6-.41-1.12-.19-1.7-.29.02-.35-.69-.4-1.17-.54l-9.61-2.84-10.58-3c-9.53-2.71-21.22-5.25-32.9-6.67-21.26-2.57-42.73-1.03-61.81,4.71-15.07,4.53-26.93,10.68-38.78,17.33l-6.83,3.84c-.33.19-.65.36-.38.5.22.23-.2.24-.55.27-1.26.08-1.86.89-2.58,1.36-3.43,1.57-6.74,3.29-9.97,4.99-.57.3-1.01.91-1.68,1.17-7.44,2.89-15.37,5.08-24.33,6.61-7.52,1.28-14.85,2.45-22.77,2.73-.25,0-.68-.15-1.01-.08-.28.06-.27.28-.23.48-.96.03-2.47-.14-3.04.29-1.88-.73-4.08-1.28-6.14-2.31,20.96-2.29,44.44-10.3,60.45-17.67,3.91-.91,6.8-3.13,10.05-4.53.52-.04.94-.36,1.29-.49.15-.05,8.09-3.72,7.88-4.01.3.09.45-.06.38-.2,4.25-1.69,7.96-3.74,12.21-5.75,13.08-6.17,25.58-11.74,42.14-14.93,17.42-3.36,36.06-3.05,53.01.96,6.58,1.56,12.26,3.28,18.27,5.4,6.67,2.36,13.46,4.63,19.58,7.12Z"/>
            <path class="cls-93" d="M348.21,192.84c-.99-.27-2.42-.45-2.17-1.19.13.02.32-.03.43,0-.12.66,1.56.58,1.74,1.19Z"/>
            <path class="cls-32" d="M354.73,213.03c1.11.23,2.62.42,2.97,1.08-13.03.14-32.06,2.69-44.26,5.84l-31.3,8.07c-7.53,1.94-14.86,3.62-22.62,4.56-16.66,2.03-33.79,2.22-50.8.45-1.24-.13-2.58.04-3.05-.45,12.23-1.27,24.1-3.19,35.26-6.38l20.34-5.82c7.05-2.02,13.5-4,20.86-5.71,25.42-5.91,46.77-6.19,70.83-1.6.43.08.67.22,1.09.22.29,0,.71.03.67-.25Z"/>
            <path class="cls-72" d="M355.16,196.87c-2.4-.43-4.66-1.19-7.04-1.87l-7.68-2.2c-14.14-4.06-27.39-7.48-45.24-8.91-20.7-1.66-41.19.54-59.15,6.36-8.93,2.9-16.9,6.01-24.31,9.98l-18.64,9.98c-.27-.15.04-.31.38-.5l6.83-3.84c11.85-6.66,23.71-12.8,38.78-17.33,19.08-5.74,40.55-7.28,61.81-4.71,11.68,1.41,23.37,3.96,32.9,6.67l10.58,3,9.61,2.84c.48.14,1.19.19,1.17.54Z"/>
            <path class="cls-67" d="M388.27,203.64c-.07.18-.04.36-.04.54-10.15-1.53-19.95-3.92-28.74-7.07l-9.48-3.39c-.69-.25-1.69-.44-1.82-.89,7.51,2.04,29.04,9.68,40.07,10.81Z"/>
            <path class="cls-72" d="M189.98,211.84c-2.88,1.86-6.42,3.49-9.97,4.99,3.24-1.7,6.54-3.43,9.97-4.99Z"/>
            <path class="cls-48" d="M359.23,197.8c.55.18,1.32.29,1.59.77-1.16-.23-5.68-1.29-5.66-1.7.58.1,1.11-.11,1.7.29.56.38,1.71.43,2.36.64Z"/>
            <path class="cls-72" d="M189.98,211.84c.73-.47,1.32-1.28,2.58-1.36-.59.59-1.7.96-2.58,1.36Z"/>
            <g>
              <path class="cls-45" d="M389.5,211.6v2.71c-3.29-.43-6.24-1.32-9.48-2.09-21.95-5.19-33.63-7.2-57.47-9.68-10.5-1.09-20.67-1.33-31.31-.89-9.09.38-17.4,1.79-25.64,3.43-.15-.58-4.62.83-5.68,1.28-1.81.76-3.95,1.25-6.1,1.85-.57.16-1.14.33-1.7.52l-1.51.5-12.83,4.26c-.91.3-2.2.25-2.61.95-1,.08-2.27.37-2.61.95-1.2.08-2.48.56-3.04,1.19-1.08-.03-2.17.46-2.61.95-1.06.08-2.27.38-2.61.99-.24.25-.75.37-1.3.44-1.45.18-3.15.71-3.91,1.43-.9.02-4.64,1.15-4.35,1.47-.87.46-2.17,1-3.41,1.15-2.86.32-2.27.69-3.42.78-.8.06-1.07.52-1.42.68-1.59.73-5.28,1.62-7.39,2.02.75-.42-3.35.25-2.62.63-.1.02-.19.05-.29.07-1.74.44-3.45.89-5.35,1.09-4.5.49-8.85,1.25-13.45,1.89-.6-.16-1.21.04-.49.23l-.63.12-2.82.55c-8.21-.09-16.25-.65-24.3-1.54l-11.78-1.29c-2.56-.28-4.99-.58-7.39-.49-.04-.2-.05-.42.23-.48.33-.07.76.08,1.01.08,7.92-.28,15.25-1.46,22.77-2.73,8.96-1.52,16.9-3.71,24.33-6.61.18.37.92.28,1.64.19,6.38-.76,12.34-1.81,18.07-3.45l17.34-4.96,21.14-6.31c20.26-6.05,42.61-8.46,65.63-7.7,10.8.35,20.86,1.42,31.32,3.01,22.32,3.37,35.11,9.35,56.05,12.83Z"/>
              <g>
                <path class="cls-26" d="M236.05,207.33c-3.43,1.55-7.41,2.55-11.21,3.84l-11.84,4c-1.88.63-3.6,1.46-5.64,1.66l17.27-5.98c2.84-.98,8.81-3.02,11.42-3.52Z"/>
                <path class="cls-12" d="M190.84,228.28c-4.29,1.15-9.15,1.74-13.94,2.12-.72-.19-.11-.39.49-.23,4.6-.64,8.95-1.41,13.45-1.89Z"/>
                <path class="cls-26" d="M207.36,216.83c.8.06-3.1,1.15-4.88,1.54-.45.1-.77.15-.83.13.51-.52,4.6-1.56,5.71-1.67Z"/>
                <path class="cls-25" d="M265.61,205.09c-1.92.38-3.65,1.08-5.68,1.28,1.07-.45,5.54-1.87,5.68-1.28Z"/>
                <path class="cls-70" d="M211.33,223.01c1.09,0-4.22.84-3.42.78,1.16-.09.57-.45,3.42-.78Z"/>
                <path class="cls-26" d="M236.05,207.33c.89-.4,2.53-1.07,4.45-1.12-1.24.59-2.77.96-4.45,1.12Z"/>
                <path class="cls-70" d="M219.1,220.39c-.44.4-3.8,1.49-4.35,1.47-.29-.32,3.44-1.46,4.35-1.47Z"/>
                <path class="cls-70" d="M223.01,218.96c.26.17-3.24,1.41-3.91,1.43.77-.71,2.47-1.25,3.91-1.43Z"/>
                <path class="cls-70" d="M232.57,215.4c-.13.22-2.33,1.21-3.04,1.19.56-.63,1.84-1.11,3.04-1.19Z"/>
                <path class="cls-70" d="M235.18,214.45c-.26.45-1.81.9-2.61.95.33-.58,1.61-.87,2.61-.95Z"/>
                <path class="cls-70" d="M237.79,213.5c-.48.45-1.65.88-2.61.95.4-.7,1.7-.65,2.61-.95Z"/>
                <path class="cls-89" d="M199.1,226.48c-.76.14-1.9.45-2.62.63-.73-.39,3.37-1.05,2.62-.63Z"/>
                <path class="cls-70" d="M229.53,216.59c-.41.46-1.7.88-2.61.95.44-.49,1.53-.98,2.61-.95Z"/>
                <path class="cls-70" d="M226.92,217.54c-.47.51-1.69.79-2.61.99.34-.6,1.55-.9,2.61-.99Z"/>
              </g>
            </g>
            <path class="cls-28" d="M354.73,213.03c.05.27-.37.25-.67.25-.42,0-.66-.13-1.09-.22-24.06-4.59-45.41-4.31-70.83,1.6-7.36,1.71-13.81,3.69-20.86,5.71l-20.34,5.82c-11.16,3.2-23.03,5.11-35.26,6.38-.75-.17-7.91.48-6.14-.31,13.19-.62,26.15-2.96,38.63-6.12,16.53-4.19,31.45-9.67,48.29-13.07,24.97-5.04,45.86-4.63,68.27-.05Z"/>
          </g>
        </g>
        <g>
          <path class="cls-18" d="M388.2,273.12h1.3v21.11c-21.26-1.2-48.94,1.73-69.96,4.87l-22.13,3.31,18.36-9.2c3.12-1.56,5.89-3.26,8.99-4.64,6.06-2.71,12.09-5.53,18.7-7.81,13.1-4.52,28.03-7.64,44.74-7.64Z"/>
          <g>
            <path class="cls-51" d="M388.2,272.65v.48c-16.71,0-31.64,3.11-44.74,7.64,0-.33.66-.55,1.3-.76,7.2-2.34,14.49-4.41,22.54-5.65,6.95-1.07,13.79-1.7,20.89-1.7Z"/>
            <path class="cls-24" d="M373.02,287.42c1.18-.35,2.41.06,2.76.62.29.47-.06,1.16-.87,1.39-1.06.3-2.26.07-2.84-.51-.39-.4-.25-1.15.94-1.5Z"/>
            <path class="cls-13" d="M350.06,288.38c-3.52.86-6.4,2.13-10.21,2.77,4.37-1.53,11.6-3.87,16.23-4.23-1.93.62-3.97.95-6.03,1.46Z"/>
            <path class="cls-16" d="M327.34,295.69c.59-.51,9.69-3.96,12.04-4.29-2.73,1.34-6.19,2.15-9.28,3.46-.88.37-1.69.85-2.76.83Z"/>
            <path class="cls-16" d="M327.34,295.69c-.98.85-2.74,1.2-4.31,1.74-1.02-.12,4.93-2.17,4.31-1.74Z"/>
          </g>
        </g>
        <g>
          <path class="cls-79" d="M209.56,276.17c9.1.27,18.1.34,27.35,1.54,4.21.54,8.23.76,12.18,1.06-16.68,3.68-33.94,6.87-52.14,7.95-20.96,1.24-41.61-.03-60.97-4.27l-14.32-3.13c-2.79-.61-5.57-1.38-8.29-2.07l-38.28-9.73-10.46-2.67c-7.93-2.02-15.88-3.63-24.66-4.57-12.89-1.38-25.66-1.53-38.64-.63-.58.04-.99-.11-1.34-.05v-.24c21.12-2.26,47.44-.39,67.07,4.88l40.31,10.82c9.36,2.51,18.12,4.96,27.75,6.95.08-.66-.98-.47-1.51-.62-8.51-2.48-16.21-5.25-24.25-8.19-23.11-8.47-37.06-11.86-63.33-15.21,13.27.95,26.04,3.49,38.21,6.63,8.54,2.2,16.14,4.9,24.36,7.77,20.67,7.22,44.64,9.62,68.74,7.98,11.24-.76,21.78-2.27,32.21-4.18Z"/>
          <g>
            <path class="cls-79" d="M161.42,284.67c-2.97-.08-5.81-.26-8.89-.73-.92-.43,7.22.28,6.79.22,4.26.56,20.01.4,24.86.01l8.37-.68c3.73-.3,7.12-.96,10.96-1.06-3.37.67-6.84,1.01-10.5,1.33l-7.52.66-4.39.21-7.88.22c-1.6.04-3.15.04-4.75,0l-7.05-.19Z"/>
            <path class="cls-79" d="M213.01,281.2c-1.53.56-3.52.49-5.19.69.56-.3.9-.27,1.01-.69,1.34.72,1.68-.2,4.18,0Z"/>
            <path class="cls-79" d="M147.8,283.33c1.1-.06,2.27-.04,3.5.31.69-.24,1.27.13.56.33-1.52-.35-3.15-.14-4.06-.64Z"/>
            <path class="cls-79" d="M213.01,281.2c.58-.21,1.31-.11,1.85-.56.45-.07,1.43.11,2.09.21-1.46.15-2.5.45-3.94.35Z"/>
            <path class="cls-79" d="M147.8,283.33c-1.34.07-2.63-.17-3.98-.37,1.63-.35,2.7.23,3.98.37Z"/>
          </g>
        </g>
        <g>
          <path class="cls-94" d="M234.64,269.68l18.05-5.03c29.87-8.33,65.85-8.11,65.28-6.38l-.2.61c-8.83,2.32-17.2,4.96-26.1,7.63l-36.47,10.92-6.1,1.35c-3.95-.29-7.97-.51-12.18-1.06-9.24-1.19-18.24-1.26-27.35-1.54l-11.01-.33c-22.27-.67-44.52-6.3-62.56-12.68-21.76-7.7-50.65-15.33-76.06-16.54l-4.2-.2c-7.35-.35-14.43-.58-22.07-.24-3.69.17-7.64.19-11.39.44-4.46.3-8.79.69-13.16.82,3.5-.62,6.89-.73,10.47-.95l5.03-.31c8.08-.49,25.12-.58,33.13-.03,11.86.81,23.37,2.12,34.5,4.37,13,2.62,25.19,5.85,37.27,10.01,11.17,3.85,21.88,7.43,33.95,10.18,9.95,2.27,19.96,3.96,30.8,4.55,4.24.23,14.97.5,18.59-.05,7.84-1.18,14.78-3.58,21.78-5.53Z"/>
          <path class="cls-29" d="M228.07,274.8c-1.89.16-3.47.45-5.13.02l31.84-2.38c-8.69,1.03-17.5,1.58-26.71,2.35Z"/>
          <path class="cls-42" d="M261.77,271.98c.06-.53,1.52-.14,1.81-.67,6.6.58.85-.87,6.85.05-2.64.42-5.32.48-8.66.61Z"/>
        </g>
      </g>
    </g>
  </g>
  <polygon class="cls-50" points="177.88 64.01 156.79 55.8 98.1 32.96 90.92 38.05 85.4 42.53 79.88 47.6 74.93 52.54 71.14 56.8 64.81 64.01 61.13 69.37 156.79 64.98 177.88 64.01"/>
  <polyline class="cls-38" points="174.38 149.58 174.11 149.72 173.82 149.79 173.26 149.8 172.41 149.78 172.41 151.85 174.38 151.85 178.78 151.85 178.79 149.59 178.78 151.85 178.89 151.85 178.89 149.59 178.89 151.85 183.3 151.85 185.26 151.85 185.26 149.78 184.42 149.8 183.86 149.79 183.57 149.72 183.3 149.58"/>
  <polyline class="cls-74" points="149.43 76.61 148.71 76.61 149.19 82.31 149.43 82.11 149.89 81.85 150.53 81.58 151.71 81.22 153.5 80.78 155.52 80.39 156.76 80.18 198.76 80.21 198.76 88.27 198.64 88.52"/>
  <polygon class="cls-74" points="146.43 94.33 146.56 90.64 146.56 89.66 150.19 89.66 152.3 89.66 152.3 94.14 146.43 94.33"/>
  <polyline class="cls-74" points="182.94 92.9 177.08 93.09 177.21 89.4"/>
  <polygon class="cls-74" points="209.13 94.26 209.45 94.09 209.45 89.66 202.57 89.66 203.62 94.33 209.13 94.26"/>
  <polygon class="cls-74" points="207.45 76.17 207.65 76.37 207.65 89.66 207.15 89.69 207.15 77.83 207.45 76.17"/>
  <polyline class="cls-74" points="148.71 76.97 148.71 89.66 148.07 89.66 148.07 76.97 148.15 76.52"/>
  <polyline class="cls-74" points="207.65 76.37 207.46 76.1 207.5 76.26"/>
  <polyline class="cls-74" points="149.33 85.31 150.78 84.99 152.5 84.59 154.04 84.27 155.7 83.99 156.96 83.84 157.06 84.01 149.2 85.85"/>
  <polyline class="cls-74" points="156.76 80.18 156.79 88.41 158.14 88.47 157.63 80.18"/>
  <polygon class="cls-74" points="149 87.81 153.24 88.52 156.83 88.69 156.86 89.27 148.71 89.75 149 87.81"/>
  <polyline class="cls-74" points="203.62 88.41 204.46 90.31 207.15 89.69 206.75 87.61"/>
  <polygon class="cls-47" points="200.96 29.41 200.82 29.55 200.96 29.63 201.08 29.52 200.96 29.41"/>
  <polygon class="cls-74" points="173.77 35.62 173.78 35.35 173.8 35.12 173.86 34.78 173.92 34.44 173.96 34.23 174 34.1 174.05 33.98 174.1 33.85 174.16 33.71 174.21 33.61 174.29 33.5 174.36 33.43 174.44 33.36 174.51 33.32 174.6 33.28 174.68 33.25 174.77 33.24 174.86 33.24 174.96 33.24 175.1 33.24 175.26 31.69 177.88 31.69 177.88 35.62 173.77 35.62"/>
  <polygon class="cls-74" points="182.06 35.62 182.04 35.35 182.02 35.12 181.97 34.78 181.9 34.44 181.86 34.23 181.82 34.1 181.78 33.98 181.73 33.85 181.67 33.71 181.61 33.61 181.53 33.5 181.46 33.43 181.38 33.36 181.31 33.32 181.23 33.28 181.14 33.25 181.05 33.24 180.96 33.24 180.87 33.24 180.72 33.24 180.56 31.69 177.94 31.69 177.94 35.62 182.06 35.62"/>
  <ellipse class="cls-74" cx="177.94" cy="28.29" rx="4.77" ry="4.67"/>
  <polyline class="cls-74" points="196.9 52.64 158.6 52.64 159.19 50.99 197.01 50.81"/>
  <polygon class="cls-74" points="198.09 52.62 200.12 52.43 201.97 48.49 182.06 35.63 177.88 35.62 177.8 52.64 198.09 52.62"/>
  <polygon class="cls-74" points="157.59 52.62 155.55 52.43 153.7 48.49 173.62 35.63 177.79 35.62 177.87 52.64 157.59 52.62"/>
  <polygon class="cls-74" points="179.59 71.28 184.43 71.47 192.2 71.99 197.43 72.62 197.08 73.47 179.59 72.37 179.59 71.28"/>
  <polygon class="cls-74" points="176.32 71.28 171.49 71.47 163.71 71.99 158.48 72.62 158.83 73.47 176.32 72.37 176.32 71.28"/>
  <polyline class="cls-74" points="157.63 52.63 157.45 73.37 159.18 73.37 159.18 52.4"/>
  <polyline class="cls-74" points="197.91 52.63 198.09 73.37 196.36 73.37 196.36 52.4"/>
  <polyline class="cls-74" points="178.56 23.67 178.14 13.54 177.62 13.54 177.31 23.67"/>
  <polygon class="cls-92" points="162.59 153.15 161.58 166.98 194.23 166.64 193.21 152.76 162.59 153.15"/>
  <polygon class="cls-92" points="159.65 193.31 159.33 197.79 196.46 197.18 196.18 193.31 159.65 193.31"/>
  <polygon class="cls-55" points="187.99 212.77 190.79 211.22 192.26 210.4 193.22 209.87 193.34 210.09 188.12 212.96 187.99 212.77"/>
  <polyline class="cls-34" points="191.96 210.57 190.48 211.39 190.8 210.59 191.67 210.04"/>
  <polygon class="cls-37" points="190.8 211.49 192.46 210.58 192.46 210.89 190.92 211.67 190.8 211.49"/>
  <polygon class="cls-75" points="176.9 230.4 181.72 229.75 185.01 229.2 190.84 228.28 189.42 230.22 176.9 230.4"/>
  <polygon class="cls-45" points="175.86 229.11 191.86 226.78 191.22 228.24 189.74 228.45 188.88 228.59 187.71 228.77 187.18 228.86 186.52 228.96 185.72 229.09 183.09 229.52 181.72 229.75 180.65 229.9 179 230.12 176.9 230.4 176.62 230.46 175.86 229.11"/>
  <polyline class="cls-45" points="196.28 227.17 196.13 226.46 199.45 225.95 199.45 226.42"/>
  <polyline class="cls-75" points="211.54 222.98 208.78 225.43 206.38 224.51 208.29 223.89"/>
  <polyline class="cls-45" points="206.31 224.54 207.47 224.16 209.28 223.61 210.31 223.33 211.28 223.06 211.63 222.97 209.31 222.44"/>
  <polygon class="cls-26" points="205.31 217.24 211.63 215.35 211.75 215.62 205.36 217.63 205.31 217.24"/>
  <polyline class="cls-26" points="209.43 216.49 205.67 217.53 240.11 206.7 240.44 206.51 240.5 206.21 240.5 205.9 240.08 205.9 239.47 205.9 201.87 218.03 201.75 218.2 201.75 218.33 201.65 218.49"/>
  <polyline class="cls-45" points="199.45 216.86 201.65 222.03 245.1 207.2 242.48 203.93"/>
  <polyline class="cls-55" points="261.29 233.42 266.52 232.58 266.81 233.07 261.29 234.08"/>
  <polygon class="cls-85" points="145.95 263.94 138.95 262.31 141.43 263.13 145.87 264.15 145.95 263.94"/>
  <polygon class="cls-85" points="142.2 263.42 145.74 264.28 145.87 264.15 142.2 263.42"/>
  <line class="cls-85" x1="142.32" y1="263.23" x2="142.2" y2="263.42"/>
  <polygon class="cls-55" points="209.65 200.8 182.85 215.35 183.4 215.35 210.07 201.14 209.65 200.8"/>
  <polyline class="cls-75" points="190.84 228.28 194.02 227.72 196.48 227.12 199.1 226.48 202.37 225.63 205.94 224.61 207.47 224.16 211.82 222.93 214.75 221.86 219.1 220.39 223.01 218.96 224.31 218.53 226.92 217.54 229.53 216.59 232.57 215.4 235.18 214.45 237.79 213.5 238.11 213.95 213.42 222.71 193.34 229.11"/>
  <polygon class="cls-75" points="210.31 223.33 212.67 222.62 212.67 223.19 210.52 223.89 210.31 223.33"/>
  <polygon class="cls-45" points="214.54 221.97 214.75 221.86 219.1 220.39 223.01 218.96 224.31 218.53 226.92 217.54 229.53 216.59 232.57 215.4 235.18 214.45 237.79 213.5 236.7 212.4 214.16 221.1 214.54 221.97"/>
  <polyline class="cls-75" points="251.85 208.84 256.31 207.41 259.57 206.39 259.85 206.31 259.97 206.27 260.07 206.24 265.61 205.09"/>
  <polyline class="cls-45" points="265.99 204.21 265.71 205.07 260.52 206.15"/>
  <path class="cls-5" d="M115.29,208.74c4.7,1.66,9.82,1.57,14.8,1.33,4.68-.23,9.36-.57,14.03-1.03,0-.08-.02-.16-.07-.23-9.17.97-18.51,1.71-27.57,0-.4-.08-.78-.05-1.19-.08Z"/>
  <polyline class="cls-17" points="134 209.85 135.85 209.74 138.87 209.51 141.82 209.26 144.22 209.05 143.92 209.41 133.94 210.13"/>
  <polyline class="cls-35" points="143.95 208.82 144.77 208.78 144.36 208.53"/>
  <polygon class="cls-5" points="115.6 208.49 117.5 209 117.36 209.11 115.6 208.61 115.6 208.49"/>
  <polygon class="cls-74" points="156.79 96.08 154.56 102.86 163.66 102.86 186.97 102.49 201.52 102.77 201.57 102.41 199.51 97.06 156.79 96.08"/>
  <polygon class="cls-74" points="156.79 86.98 156.86 89.27 198.76 89.02 198.76 86.51 156.79 86.98"/>
</svg>