<?xml version="1.0" encoding="UTF-8"?>
<svg id="Layer_1" xmlns="http://www.w3.org/2000/svg" xmlns:xlink="http://www.w3.org/1999/xlink" version="1.1" viewBox="0 0 577.27 129.32">
  <!-- Generator: Adobe Illustrator 30.1.0, SVG Export Plug-In . SVG Version: 2.1.1 Build 136)  -->
  <defs>
    <style>
      .st0, .st1, .st2 {
        fill: none;
      }

      .st3 {
        fill: #72bfe2;
      }

      .st4 {
        fill: #ebf5f8;
      }

      .st5 {
        fill: #81badd;
      }

      .st6 {
        fill: #f3f3f4;
        stroke: #231f20;
        stroke-width: .75px;
      }

      .st6, .st1, .st2 {
        stroke-miterlimit: 10;
      }

      .st7 {
        fill: #f3f9fb;
      }

      .st8 {
        fill: #9dd2ec;
      }

      .st9 {
        fill: url(#linear-gradient1);
      }

      .st10 {
        fill: #5088b4;
      }

      .st11 {
        fill: #255e8f;
      }

      .st12 {
        fill: #4f96c7;
      }

      .st13 {
        fill: #f0de00;
      }

      .st14 {
        fill: #2c6b9e;
      }

      .st15 {
        fill: #242627;
      }

      .st16 {
        fill: #eff7f8;
      }

      .st17 {
        fill: #c0d9eb;
      }

      .st18 {
        fill: #579fcb;
      }

      .st19 {
        fill: #fafdff;
      }

      .st20 {
        fill: #c9eaf8;
      }

      .st21 {
        fill: #231f20;
      }

      .st1 {
        stroke: #2e3192;
        stroke-width: 4px;
      }

      .st22 {
        fill: #f8fcfe;
      }

      .st2 {
        stroke: #fff200;
        stroke-width: 3px;
      }

      .st23 {
        fill: #f6fafc;
      }

      .st24 {
        fill: #5aa5d2;
      }

      .st25 {
        fill: #eff8fa;
      }

      .st26 {
        fill: #f6f6f7;
      }

      .st27 {
        fill: #5da9d5;
      }

      .st28 {
        fill: #296699;
      }

      .st29 {
        fill: url(#linear-gradient);
      }

      .st30 {
        fill: #eaf6fc;
      }

      .st31 {
        fill: #9bdbf2;
      }

      .st32 {
        fill: #67b1d9;
      }

      .st33 {
        fill: #7fc1e2;
      }

      .st34 {
        fill: #c6e7f5;
      }

      .st35 {
        fill: #787678;
      }

      .st36 {
        fill: #1f1f23;
      }

      .st37 {
        fill: #fefeff;
      }

      .st38 {
        fill: #3a82b5;
      }

      .st39 {
        fill: #d5d7d8;
      }

      .st40 {
        fill: #dadadd;
      }

      .st41 {
        fill: #f1f2f2;
      }

      .st42 {
        fill: #e6f0f3;
      }

      .st43 {
        fill: #9bdaef;
      }

      .st44 {
        fill: #d7eff8;
      }

      .st45 {
        fill: #80c1e2;
      }

      .st46 {
        fill: #1f1e22;
      }

      .st47 {
        fill: #c9e7f7;
      }

      .st48 {
        fill: #f2f9fb;
      }

      .st49 {
        fill: #b4dded;
      }

      .st50 {
        fill: #b8e0ed;
      }

      .st51 {
        fill: #fff;
      }

      .st52 {
        fill: #499bcb;
      }

      .st53 {
        fill: #3e76a3;
      }

      .st54 {
        fill: #353538;
      }

      .st55 {
        fill: #ecf8fd;
      }

      .st56 {
        fill: #d2d2d5;
      }

      .st57 {
        fill: #2b2a2e;
      }

      .st58 {
        fill: #36363a;
      }

      .st59 {
        fill: #f9fcfe;
      }

      .st60 {
        fill: #424347;
      }

      .st61 {
        fill: #a6d7f1;
      }

      .st62 {
        fill: #2e3192;
      }

      .st63 {
        fill: #17171b;
      }

      .st64 {
        fill: #f7fbfe;
      }

      .st65 {
        fill: #72b2d6;
      }

      .st66 {
        fill: #808285;
      }

      .st67 {
        fill: #f7fafb;
      }

      .st68 {
        fill: #2a689b;
      }

      .st69 {
        fill: #5488af;
      }

      .st70 {
        fill: #a1d3ec;
      }

      .st71 {
        fill: #5190c1;
      }

      .st72 {
        fill: #dad9da;
      }

      .st73 {
        fill: #f3f8fb;
      }

      .st74 {
        fill: #dbeff8;
      }

      .st75 {
        fill: #b3b2b4;
      }

      .st76 {
        fill: #508ab5;
      }

      .st77 {
        fill: #6a6b6d;
      }

      .st78 {
        fill: #80c0de;
      }

      .st79 {
        fill: #ceccce;
      }

      .st80 {
        fill: url(#linear-gradient2);
        isolation: isolate;
        opacity: .9;
      }

      .st81 {
        fill: #d7d7d8;
      }

      .st82 {
        fill: #9f9fa1;
      }

      .st83 {
        fill: #6eaacd;
      }

      .st84 {
        fill: #8accea;
      }

      .st85 {
        fill: #1f1f22;
      }

      .st86 {
        fill: #bebdbf;
      }

      .st87 {
        fill: #f9fdfe;
      }

      .st88 {
        fill: #f8f7f7;
      }

      .st89 {
        fill: #1c75bc;
      }

      .st90 {
        fill: #18191b;
      }

      .st91 {
        fill: #69a7d1;
      }

      .st92 {
        clip-path: url(#clippath);
      }

      .st93 {
        fill: #fff200;
      }

      .st94 {
        fill: #abdcf3;
      }

      .st95 {
        fill: #fefcf9;
      }
    </style>
    <clipPath id="clippath">
      <ellipse class="st0" cx="69.3" cy="64.29" rx="62.83" ry="59.72"/>
    </clipPath>
    <linearGradient id="linear-gradient" x1="38.47" y1="725.6" x2="44.46" y2="759.39" gradientTransform="translate(0 -638.23)" gradientUnits="userSpaceOnUse">
      <stop offset="0" stop-color="#54a4d0"/>
      <stop offset="1" stop-color="#2d6fa3"/>
    </linearGradient>
    <linearGradient id="linear-gradient1" x1="84.27" y1="749.41" x2="70.28" y2="794.39" gradientTransform="translate(0 -638.23)" gradientUnits="userSpaceOnUse">
      <stop offset="0" stop-color="#3c81b4"/>
      <stop offset="1" stop-color="#29689b"/>
    </linearGradient>
    <linearGradient id="linear-gradient2" x1="35.3" y1="653.45" x2="49.48" y2="678.01" gradientTransform="translate(0 -638.23)" gradientUnits="userSpaceOnUse">
      <stop offset="0" stop-color="#fff"/>
      <stop offset="1" stop-color="#f0de00"/>
    </linearGradient>
  </defs>
  <ellipse class="st1" cx="69.3" cy="64.78" rx="65" ry="61.78"/>
  <ellipse class="st2" cx="69.15" cy="64.78" rx="62.83" ry="59.72"/>
  <g id="Generative_Object">
    <path class="st90" d="M76.94,17.07c.96-.89.98-1.87,2.69-1.75-.41-.65-.62-.78-1.32-.9,1.14-.49,1.25-.02,2.11.73.89-.82.54-1.52,2.32-1.87.66-.1,1.25-.26,1.87-.57-.86,1.52-2.83.73-3.43,2.89.34.23.64.27,1.03.41-1.94,1.04-2.08-1.01-4.37.57-.31.22-.5.46-.9.49Z"/>
    <g>
      <path class="st13" d="M81.72,69.23c.5,4.82,1.28,9.67,1.47,14.39-.14-.02-.42-.11-.45.08l-5.53-.31-1.13-14.17c1.75-.25,3.86-.02,5.64,0h0Z"/>
      <path class="st13" d="M80.19,55.23l1.44,13.69h-.95c-.09,0-.11.06-.1.1h-2.15s.02-.13-.02-.19h-2.42l-1.04-13.85,5.12.37c.1,0,.1-.08.1-.13h.02,0Z"/>
      <path class="st13" d="M78.45,69.03h3.18c-.04.08.08.12.09.2-1.78-.02-3.89-.25-5.64,0-.07,0-.09-.04-.08-.1v-.21c.31,0,.62,0,.96.06.49.1,1.01.04,1.49.04h0Z"/>
      <path class="st13" d="M81.64,68.93s.04.06,0,.1h-1.04s.01-.1.1-.1h.95,0Z"/>
      <path class="st51" d="M83.19,83.62s.06.06,0,.08h-.45c.03-.19.31-.1.45-.08Z"/>
      <g>
        <path class="st93" d="M76,69.12c0,.06.01.11.08.1l1.13,14.17h-15.32l-7.13.35c.11-.41-.12-.86.14-1.32s.24-1.03.3-1.5l.23-1.81.05-1.35c0-.32.14-.63.06-.96-.09-.39.05-.72.08-1.09.08-1.1,0-2.18.3-3.22.1-.35-.02-.7.11-1.06s-.03-.75-.03-1.14.14-.73.17-1.07c.86.06,1.71-.06,2.62-.06,0,0,17.21-.04,17.21-.04Z"/>
        <path class="st36" d="M71.28,79.45h-3.88v-4.51c0-1.12.85-1.98,1.99-1.87.87.08,1.73.68,1.83,1.6.16,1.59.07,3.2.06,4.79h0Z"/>
        <polygon class="st66" points="66.47 72.48 69.21 71.48 69.21 72.8 67.36 73.35 66.55 73.04 66.47 72.48"/>
        <polygon class="st66" points="71.94 72.48 69.21 71.48 69.21 72.8 71.06 73.35 71.86 73.04 71.94 72.48"/>
        <polyline class="st35" points="67.41 79.42 67.29 79.48 67.16 79.5 66.92 79.51 66.55 79.5 66.55 80.35 67.41 80.35 69.32 80.35 69.32 79.42 69.32 80.35 69.37 80.35 69.37 79.42 69.37 80.35 71.29 80.35 72.14 80.35 72.14 79.5 71.78 79.51 71.53 79.5 71.4 79.48 71.29 79.42"/>
      </g>
      <g>
        <ellipse class="st6" cx="68.93" cy="28.55" rx="1.62" ry="1.54"/>
        <path class="st62" d="M68.15,31.68v-.72h1.57v.72l1.57.05c.12,0,.21,0,.26-.04.09-.07.08-.12.08-.21.16.02.18.23.3.35.23.21,1.51.14,1.29.02.45.04,1.25.12,1.66.08.07,0,.2.02.26.08.06.05.02.17.17.14.07,0,.16,0,.16-.11.58-.04,1.16.24,1.73.12,0,.13.12.07.1-.03l.06-4.17.09,4.25c0,.2.32.26.4.35l-.05,1.65c-.01.43.13.84.06,1.34-.05.37-.13.87.09,1.15-.19.6-.29,1.24-.19,1.85.15-.04.2.07.22.09.03,0,.07-.06.07-.09.51.05,1.02.12,1.52,0-.02.13.1.08.21.12-.17.16-.05.2.1.17.12.02.3-.03.41,0,.34.12.73.27,1.1.2.07.16.15.02.12-.11.03-.19-.09-.44.1-.5v.7c0,.11.08.09.13.09.27.05.54.13.81.28-.07.52.11.95-.08,1.52-1.37.73-3.36,2.06-3.31,3.83.09,3.53.67,6.96,1.03,10.39,0,.05,0,.14-.1.13l-5.12-.37-11.83-.02-2.58.17c.36-.29.85-.41,1.33-.19.17.08.26-.14.34-.16.42-.12.87.02,1.37.11l.66-10.76c-1.68,0-3.27.1-4.91.22-.23.02-.41.09-.53.19-.66-1.58-1.79-2.87-3.52-3.51l.06-1.52c.26.35,0,.82.13,1.28,2.11-.46,4.16-.74,6.33-.9,4.66-.34,9.28-.33,13.93-.08.06-.47.05-.9.02-1.39-1.91-.19-3.77-.18-5.69-.24l-1.09-.04c-3.06-.11-6.12.17-9.13.45.11-.22.04-1.6,0-1.59.06-.02.09-.09.07-.16,0-.04-.03-.07-.07-.08,0-.51.2-1.11-.09-1.55.06-.11.03-.09,0-.12-.11-.04-.17-.06-.22-.05v-.11c.82.09.44-1.95.42-2.43.16.04.27-.07.11-.1l.08-8.54s.12,0,.11.06c0,.05.02.15.08.14.11-.11.14-.16.23-.2l.03,8.37,1.7-.22c.16-.02.26-.08.28-.2.07,0,.13-.04.19-.06-.04.06.03.2.09.27.04.05.18,0,.16-.09l2.83-.22v-8.36c-.11-.07-.04-.07.02-.12.43-.33.02.85.32.73l.03,7.73,1.92-.02"/>
        <path class="st62" d="M59.86,38.59s-.04.04-.07,0h.07Z"/>
        <path class="st62" d="M60.56,55.15l-2.83.22,1.07-9.92c.03-.31.12-.65.02-.89.12-.1.3-.17.53-.19,1.64-.12,3.23-.22,4.91-.22l-.66,10.76c-.5-.09-.94-.23-1.37-.11-.08.02-.17.24-.34.16-.48-.22-.96-.1-1.33.19h0Z"/>
        <path class="st62" d="M55.36,39.52c.17-.27.59-.19.81-.39.08.1.21-.05.31-.09.37.11.73-.13,1.11-.11.19,0,.43,0,.53-.19.51-.06,1.08.14,1.54-.11.03-.02.07-.02.13-.03,3.03-.28,6.11-.56,9.19-.46l1.09.04c1.92.07,3.79.06,5.69.24.03.49.03.92-.02,1.39-4.65-.25-9.27-.26-13.93.08-2.17.16-4.22.45-6.33.9-.12-.46.13-.93-.13-1.28h0Z"/>
        <path class="st62" d="M67.3,14.76c-.6-.62-.39-1.78.3-2.25.23.06.42-.35,1.16-.41.47.67.56,1.59.07,2.26-.38.51-1.05.68-1.53.4Z"/>
        <path class="st0" d="M65.84,23.36l.02,8.36-2.83.22c-.14-.15-.11-.31-.11-.49l.02-7.97c1-.05,1.96-.25,2.9-.12Z"/>
        <path class="st0" d="M74.9,31.92c-.41.03-1.22-.04-1.66-.08l-1.24-.1v-8.44l2.89.2v8.42h.01Z"/>
        <path class="st0" d="M62.59,31.82c-.02.12-.12.18-.28.2l-1.7.22-.04-8.37c.58-.28,1.28-.24,1.98-.33l.04,8.29h0Z"/>
        <path class="st0" d="M76.82,23.77c.03.12.07.23.02.44-.03.1.22.02.32.03l.05,4.2.02,3.71c-.57.12-1.15-.16-1.73-.12l-.22-.11.02-8.35c.55,0,1.06.07,1.54.2,0,0-.02,0-.02,0Z"/>
        <path class="st63" d="M75.49,32.03c0,.11-.08.09-.15.11-.15.03-.11-.08-.17-.14-.08-.07.02-.11.1-.07l.22.11h0Z"/>
        <g>
          <path class="st62" d="M81.72,38.43s-.07-.03-.1,0c-.19.06-.08.31-.1.5.03.14-.05.27-.12.11l-.06-.63c-.41.1-.72.21-1.04.32-.12.04-.4-.09-.41.1-.15.03-.27,0-.1-.17-.11-.04-.23,0-.21-.11.28-.07,1.94-.39,1.79-.73-.17-.39-2.8-.74-3.38-.81-.05.52-.05.95-.04,1.42.07.04-.42.08.11.13s-.04.1-.06.09c-.03-.02-.07-.13-.22-.09-.11-.62-.02-1.92.19-1.85s2.25.29,3.4.67v-1.35c-1.06-.47-2.2-.65-3.38-.8-.06.51-.04.91-.02,1.48-.22-.28-.14-.78-.09-1.16.07-.5-.07-.91-.06-1.34l.05-1.66c-.08-.08-.39-.15-.4-.34l-.09-4.26-.06,4.17c.02.1-.09.16-.1.03l-.02-3.71-.05-4.2c0-.13.05-.26.02-.38-.05-.16-.24-.06-.35-.09-.48-.13-.99-.19-1.54-.2l-.02,8.35c-.08-.03-.18,0-.1.07-.06-.06-.19-.08-.26-.08v-8.42l-2.9-.2v8.44l1.24.1c.22.12-1.07.19-1.29-.02-.13-.12-.14-.32-.3-.34l-.04-8.19c-1.81-.05-3.55-.09-5.34-.01-.06.26-.06.49-.06.71-.3.11.12-1.06-.32-.73-.06.05-.14.05-.04.12-.93-.13-1.9.06-2.9.12l-.02,7.97c-.16,0-.1.21-.14.31-.07.02-.12.06-.19.06l-.04-8.29c-.69.09-1.4.05-1.98.33-.09.04-.12.09-.23.2-.06,0-.09-.1-.08-.14.02-.07-.08-.04-.1-.06-.7-.51-.74.19-1.7-1.68l8.69-5.33c.13-1.44.66-.69.61-1.03-.01-.1.16-.42.05-.48-.28-.17-.35-.41-.51-.58.48.27,1.16.11,1.53-.4.5-.67.4-1.59-.07-2.26-.75.07-.94.48-1.16.41.22-.36.71-.44,1.2-.54l.04-4.02c0-.09.1-.18.19-.19l.04,4.18c.83.1,1.52.62,1.75,1.31.28.83-.07,1.54-.74,2.1-.11.09.03.37.03.47,0,.26.4-.42.62,1.04l8.63,5.3c-.71,1.31-.31,1.1-1.68,1.7l-.03,4.58c0,1.32-.03,2.57,0,3.91.6.08,4.31.58,4.16,1.42-.08.44-.14.83-.11,1.28l.07,1.07c.04.59-.14,1.15.04,1.75.05.18-.13.4-.1.56h0Z"/>
          <path class="st62" d="M81.74,39.22s-.13.02-.13-.09v-.7s.07-.03.11,0c.04.26-.04.53.02.79Z"/>
          <path class="st62" d="M63.03,31.94c.02.07-.12.14-.16.09-.06-.07-.12-.21-.08-.27.04-.11-.02-.31.14-.31,0,.18-.03.35.11.49h0Z"/>
          <path class="st62" d="M80.29,38.73v.11c-.11-.04-.29,0-.41,0,.01-.19.3-.06.41-.1h0Z"/>
          <path class="st62" d="M79.27,34.84l.02.28c-.16-.02-.26-.12-.43-.08-.29.02-.53,0-.73-.17,0,0,1.14-.03,1.14-.03Z"/>
        </g>
        <path class="st88" d="M58.12,38.73c4.03-.14-.39.43-.53.19s.04-.13.02-.2c.13.04-3.51.14.52,0h-.01Z"/>
        <g>
          <path class="st62" d="M60.08,32.4c.17.03.05.14-.11.1.02.48.4,2.52-.42,2.43l-.73-.08c-.78-.09-1.53-.26-2.32-.51-.02.48-.04.82.02,1.3.8-.3,1.56-.38,2.31-.58.22-.06.49.03.72,0,.04,0,.11,0,.22.05.05.02.08,0,0,.11-.62.09-2.89.45-3.28.88-.1.1.03-1.21.05.41s0,.79.04.85,2.19-.54,3.28-.59c.04,0,.07.04.08.07,0,.07-.02.14-.07.16-.47.07-3.21.45-3.38.82-.21.48,2.81.93,3.18.8-.46.24-1.03.04-1.54.11-.14.02-.39.03-.52,0l-1.11-.31c-.02.29,0-.54-.02.62s-.23.19-.31.09c-.11-.37.1-.77-.15-1.2.14-.53.22-1.07.04-1.65.06-.71.21-1.48.02-2.2-.1-.36,0-.67.4-.85,1.12-.49,2.38-.74,3.61-.84h-.02Z"/>
          <path class="st51" d="M59.55,34.93v.11c-.23.04-.5-.05-.72,0,.02-.07-.05-.14,0-.2l.73.08h0Z"/>
          <path class="st51" d="M56.49,33.88c-.12.03-.15-.11,0-.11v.11h0Z"/>
        </g>
        <g>
          <path class="st51" d="M68.97,30.09c-.93.06-1.66-.68-1.66-1.54,0-.91.71-1.57,1.65-1.54v3.08s.01,0,.01,0Z"/>
          <path class="st75" d="M68.97,30.09v-3.08c.89.02,1.59.63,1.59,1.55,0,.78-.72,1.57-1.59,1.54h0Z"/>
        </g>
        <polygon class="st62" points="68.93 30.5 69.45 31.01 68.38 31.01 68.93 30.5"/>
        <polyline class="st62" points="68.21 30.09 69.67 30.09 68.91 31.04"/>
      </g>
      <g>
        <path class="st93" d="M74.97,54.99l1.04,13.83h2.42c.04.07.01.16.02.2-.49,0-1,.05-1.49-.04-.34-.07-.65-.07-.96-.06l-12.83.04-6.02.11c-.34,0-.66.1-.97.05.1-.16-.08-.58,0-.77.21-.61.18-2.21.28-2.55.12-.37-.03-.75.05-1.14.2-.98.25-2.81.47-3.62.1-.35.1-.75.15-1.13l.06-.49c.05-.41.16-.76.21-1.14.12-.83.1-1.62.31-2.38.05-.2.02-.36.04-.53l2.83-.22,2.58-.17,11.83.02h-.01Z"/>
        <path class="st93" d="M76,68.92v.21l-17.21.04c-.91,0-1.76.12-2.62.06v-.1c.31.05.64-.04.97-.05l6.02-.11,12.83-.04h.01,0Z"/>
        <path class="st46" d="M71.3,63.79h-3.88v-4.48c0-.97.71-1.72,1.71-1.78,1.23-.07,2.2.87,2.2,2.07l-.03,4.19Z"/>
        <polygon class="st66" points="66.51 56.96 69.24 55.96 69.24 57.27 67.39 57.82 66.59 57.51 66.51 56.96"/>
        <polygon class="st66" points="71.97 56.96 69.24 55.96 69.24 57.27 71.09 57.82 71.89 57.51 71.97 56.96"/>
      </g>
      <g>
        <path class="st93" d="M82.74,83.7h.45c.83,3.87.91,7.96,1.53,11.93.04.25-.04.53.07.78l-11.95.03c-.07,0-.11-.05-.11-.11.03-1.18.62-3.21,0-3.6l-.27-.17-.02-5.76.19-.22c.13-.16.22-.52.12-.77-1.1-.26-2.31-.93-3.47-1.07l-3.09,1.02c.01.3-.02.47.1.66.15.22.55.25.8.22l-.02,6.04-13.44.06c-.1-.17-.05-.3-.02-.5.14-.05.09.09.13.23h7.46c.07-.36-.18-.76.13-1.02l.56-8.02,20.85.29v-.02h0Z"/>
        <path class="st85" d="M89.15,102.12c0,.25-.08.5.03.8,1.99.54,3.63,1.66,5.02,3.1.43.04.85.06,1.31.07l5.96.05c-.1.29-.44.22-.6.08l-5.38.03h-59.46c-.22,0-.59.28-.77-.08l4.46-.09c.51,0,.97-.03,1.54-.03.98-1.2,2.15-2.1,3.56-2.75,1.5-.69,2.7-4.71,7.69-3.56l-.14,1.05c-.04.34-.36.65-.33,1.05.05.74-.18,1.49.06,2.25.21.67.55,1.35.34,2.02.96.11,1.76-.05,2.66-.06h28.39c-.57-.01,1.63.23,1.48-.05.16-.03.28.06.42.12.95-.02,1.91.05,2.91-.07-.06-.27-.28-.4-.36-.61,0-.04.03-.11,0-.2-.57.2-1.27-1.07-2.1-1.45.07-.15-.2-1.02.08-1,.34-.12.71-.11,1.15-.14.03-.19.06-.4.06-.61v-4.17c.18.03.06-.17.19-.38l.04,5.06,1.61.29c.13-.38-.08-.84.2-.72h-.02Z"/>
        <path class="st93" d="M61.89,83.4l-.56,8.02c-.31.26-.06.66-.13,1.01h-7.46c-.04-.12.02-.26-.13-.21.39-2.84.46-5.78,1.15-8.49l7.13-.33Z"/>
        <path class="st57" d="M89.1,96.51l.06,5.61c-.28-.13-.07.34-.2.72l-1.61-.29-.04-5.06c-.13.21-.01.4-.18.38,0-.21-.1-.46-.04-.68.06-.2.2-.37.23-.58.54-.26,1.19-.05,1.79-.09h-.01Z"/>
        <path class="st82" d="M89.1,96.51c-.59.04-1.25-.17-1.79.09-.08.04-.08-.14-.13-.14l-2.4-.05c-.11-.25-.03-.53-.07-.78,1.7-.02,3.4-.07,5.16.02.2,0,.22.7.02.75-.26.06-.58.1-.8.12h.01Z"/>
        <path class="st86" d="M84.79,96.41l2.4.05s.05.18.13.14c-.03.21-.17.38-.23.58l-1.89.14.59,5.37c.09.03.13.06.12.1-.28-.02,0,.85-.08,1-.1-.03-.33-.02-.43,0-1.15-.71-2.45-1.25-3.69-1.83-2.81-1.33-5.75-1.38-8.87-1.36v-4.15l11.95-.03h0Z"/>
        <path class="st72" d="M72.64,86.57l-.19.22c0-.31-.5-.24-.74-.2.02-.03-.21-.14-.29-.04-.03.04.08.09.08.15v4.84c0,.76-.7.04-.72.53.02-.43,0,.55.26.57.1,0,.22-.04.25-.24.08-.61.21.24.4.19,0,.08-.16.08-.19.19.12.01.2-.08.24,0,.02.05.06.11.06.21l.04,3.38c.32.05.63.06.89-.06,0,.06.04.11.11.11v4.15c-1.24,0-2.47.18-3.69.27-.07-.92-.05-1.81-.05-2.81l.02-11.88c-.79.06-1.38.36-2.03.45-.25.03-.65,0-.8-.22.07.01.12.06.2.03l2.77-.99,3.37,1.14h.01Z"/>
        <path class="st26" d="M72.44,86.8l.02,5.76.27.17c.61.39.03,2.42,0,3.6-.25.12-.57.12-.89.06l-.04-3.38c0-.1-.04-.16-.06-.21-.04-.09-.12,0-.24,0,.03-.12.19-.11.19-.19l.02-6c.24-.04.74-.12.74.2h0Z"/>
        <path class="st37" d="M72.64,86.57l-3.37-1.14-2.77.99c-.08.03-.13-.01-.2-.03-.13-.18-.09-.36-.1-.66l3.09-1.02c1.16.15,2.37.81,3.47,1.07.1.25.02.62-.12.77v.02Z"/>
        <path class="st58" d="M72.84,100.58c3.12-.02,6.06.03,8.87,1.36-.33.23-.55.59-.52.98-2.52-.76-6.45-.67-9.18-.26-1.36.2-2.64.27-3.95.67,3.28-.45,6.58-.53,9.89.01,1.69.28,3.24.83,4.78,1.59.78.38,1.56.64,2.24,1.06.15.27-2.05.03-1.48.03h-28.39c-.89.01-1.7.18-2.66.07.21-.67-.13-1.35-.34-2.02-.24-.76,0-1.51-.06-2.25-.03-.41.29-.71.33-1.05,0,.04,0,.12.12.13l9.37.18c0,.06-.09.1-.08.16.02.09.11.09.2.14l1.18.69c-.29.15-.57-.02-.67.28l2.15-.46c.62-.13,1.21-.34,1.84-.43s1.19-.25,1.74-.41c.26-.08.64-.18.91-.2,1.23-.09,2.46-.26,3.69-.27h.02Z"/>
        <path class="st60" d="M68.23,101.05c-.55.17-1.11.32-1.74.41s-1.21.3-1.84.43l-2.15.46c.1-.3.38-.13.67-.28l-1.18-.69c-.09-.05-.18-.05-.2-.14,0-.06.07-.09.08-.16l5.33-.08c.38,0,.71,0,1.02.05h.01Z"/>
        <g>
          <path class="st51" d="M69.15,100.85c-.27.02-.65.12-.91.2-.32-.06-.65-.06-1.02-.05l-5.33.08-9.37-.18c-.11,0-.12-.09-.12-.13l.14-1.05c.4-.14.34-.68.43-1.03l.58-2.27c.08-.29.24-1.45.14-1.8-.2-.71.09-1.68-.05-1.9l13.44-.06.02-6.04c.65-.08,1.24-.39,2.03-.45l-.02,11.88c0,.99-.02,1.89.05,2.81h-.01Z"/>
          <path class="st40" d="M56.94,95.62c-.11.03-.24.03-.24-.03,0-.05.12-.14.21-.16.23-.01.22.09.03.19Z"/>
          <path class="st81" d="M57.86,95.23c-.11.03-.24.03-.24-.03,0-.05.12-.14.21-.16.23-.01.22.09.03.19Z"/>
          <path class="st56" d="M58.78,94.84c-.11.03-.24.03-.24-.03,0-.05.12-.15.21-.16.23-.01.22.09.03.19Z"/>
          <path class="st39" d="M59.49,94.55c-.11.03-.24.03-.24-.03,0-.05.12-.14.21-.15.23-.01.22.09.03.19h0Z"/>
        </g>
        <path class="st51" d="M81.19,102.93c.69.21,1.36.68,1.98,1.04.7.41,1.27,1.13,2.04,1.47,0,.12.04.22,0,.42.15.03.24.14.19.26-.13-.06-.26-.15-.42-.12-.68-.42-1.46-.68-2.24-1.06-1.54-.76-3.09-1.31-4.78-1.59-3.31-.54-6.61-.47-9.89-.01,1.31-.41,2.59-.47,3.95-.67,2.72-.41,6.66-.5,9.18.26,0,0-.01,0-.01,0Z"/>
        <path class="st51" d="M87.09,97.19c-.06.21.04.47.04.68v4.17c0,.22-.03.42-.06.61-.45.04-.81.02-1.15.14.01-.04-.03-.07-.12-.1l-.59-5.37,1.89-.14h-.01Z"/>
        <path class="st54" d="M85.4,103.78c.1-.01.33-.02.43,0,.84.39,1.54,1.66,2.1,1.45.04.09.02.16,0,.2-.05.04-.1-.02-.14-.06l-2.6.05c-.77-.34-1.33-1.06-2.04-1.47.59-.11,1.68-.11,2.23-.19,0,0,.02.02.02.02Z"/>
        <path class="st79" d="M87.94,105.45c.08.21.31.34.36.61-1,.12-1.96.05-2.91.07.05-.13-.04-.23-.19-.26.04-.2,0-.3,0-.42l2.6-.05s.09.1.14.06h0Z"/>
        <path class="st77" d="M85.4,103.78c-.55.08-1.65.07-2.23.19-.61-.36-1.29-.83-1.98-1.04-.03-.39.19-.75.52-.98,1.24.59,2.54,1.12,3.69,1.83Z"/>
        <path class="st15" d="M71.7,86.6l-.02,6c-.2.05-.32-.8-.4-.19-.03.2-.15.24-.25.24-.25-.02-.24-1-.26-.57.02-.48.73.24.73-.53v-4.84c0-.07-.11-.11-.08-.15.08-.1.31.01.29.04,0,0-.01,0-.01,0Z"/>
      </g>
      <polygon class="st66" points="68.81 56.11 69.24 55.96 69.61 56.09 69.64 57.39 69.24 57.27 68.93 57.36 68.81 56.11"/>
    </g>
  </g>
  <polygon class="st93" points="61.36 44.63 75.39 44.63 75.52 55.52 62.48 55.36 61.36 44.63"/>
  <polyline class="st93" points="61.89 83.4 77.21 83.39 77.21 84.23"/>
  <polyline class="st13" points="79.19 44.63 84.65 96.34 78 96.54 74 44.63"/>
  <polyline class="st13" points="63.89 44.63 59.9 96.54 53.24 96.34 58.7 44.63"/>
  <g class="st92">
    <g id="Generative_Object-2">
      <path class="st95" d="M77.36,84.33c-.06-.09.1-.09.22-.07.07.1-.13.06-.22.07Z"/>
      <path class="st95" d="M78.88,84.07c.03.06-.03.12-.16.08-.07-.02-.14,0-.21,0-.04-.05.03-.1.09-.11.11-.02.21,0,.28.03Z"/>
      <g>
        <path class="st33" d="M160.64,112.96v1.51h-.57c-3.08,0-6.04.26-9.05.7-3.49.51-6.65,1.37-9.77,2.33-.28.09-.57.17-.56.31-2.86.94-5.48,2.1-8.1,3.22-.32-.1-.36.12-.59.18-13.3,3.7-29.93,5.49-44.99,5.29-7.19-.09-14.08-.69-20.94-1.76.12-.26.52-.02.72-.02,1.83,0,3.53.08,5.25-.02l.86-.05c5.54-.33,10.83-1.04,16.14-1.95l7.42-1.27c4.67-.8,9.3-1.35,14.12-1.64.75-.05,1.45-.01,2.16-.08.89-.09,1.86-.02,2.77,0l2.86.08c2.18.06,4.49.4,6.49.45.14.18.6.11.95.06-.28-.15-.66,0-.95-.06-1.21-.24-2.55-.31-3.96-.41l-1.63-.12c-2.12-.15-5.48-.21-7.65-.1l-2.61.13c-5.14.26-9.95,1.02-14.85,1.87l-6.1,1.06c-4.71.82-9.34,1.54-14.24,1.79l-2.42.13c-1.33.07-2.74.1-4.08,0-1.62-.11-1.36.13-2.59-.08-7.83-1.3-15.57-3.41-22.37-5.63l2.21-1.68,6.21,1.29c8.39,1.74,17.34,2.27,26.42,1.76,7.88-.45,15.37-1.76,22.59-3.27l2.64-.55,5.26.17c2.13.07,4.09.22,6.24.34,8.07.44,15.89-.08,23.54-1.5,7.85-1.45,14.79-2.73,23.16-2.49h.01Z"/>
        <path class="st5" d="M160.64,123.36v9.7l-9.43-.66c-5.53-.39-10.92-.51-16.36-.4-2.58-.19-5.12,0-7.74.11-1.74.07-3.36.18-4.93.55-1.9.45-9.97.61-12.76,1-.03-.17.31-.13.17-.22,3.93-.48,7.85-.92,11.85-1.55l10.94-1.7c6.93-1.08,20.16-4.33,26.58-5.54-1.95.22-3.63.63-5.44,1l-16.61,3.38c-2.23.45-4.17.85-6.41,1.19l-11.51,1.75-5.26.67c-6.17.78-12.05,1.26-18.53,1.37-12.18.21-24.17-1.36-34.41-4.06-.16-.04-.3.02-.44-.03-.06-.02-.14.05-.11.1l-.75-.23s.17-.1.4-.07c10.96,1.59,22.26,1.88,33.49.87,4.1-.37,7.92-.78,11.84-1.4l15.52-2.46,9.59-1.36c9.11-1.29,21.1-2.5,30.31-2.01h0Z"/>
        <path class="st45" d="M40.98,116.36c-.31.47-1.02,1-1.77,1.41.17.16-.03.14-.09.07-.11-.11-.27-.02-.21.04-8.01-2.15-13.88-3.64-22.94-4.78-7.91-.99-15.85-1.04-23.74-.38-.12-.02-.23-.01-.19.07-.06,0-.13.02-.19,0v-3.72c.15-.03.33.04.58.02,5.63-.37,11.16-.31,16.74.26,3.8.39,7.25,1.05,10.68,1.88l4.53,1.1,16.59,4.01v.02h0Z"/>
        <path class="st52" d="M-7.4,99.21c.89.1,1.95-.13,2.83,0,.88.13,1.71.07,2.72.16l-6.3,1.11v-1.27c.25.02.51-.03.75,0Z"/>
        <path class="st70" d="M48.17,95.98c1.04-.03,2.09.09,3.2.2l5.1.53c.1.73-.53.92-.57,1.4l-4.3-.79c-1.09-.2-2.07-.48-3.09-.66-.69-.12-1.13-.36-1.67-.56.25-.18.9-.11,1.32-.12h0Z"/>
        <g>
          <path class="st89" d="M70.39,87.87c-6.94,3.03-17.11,6.33-26.2,7.28.9.42,1.85.65,2.66.95.54.2.98.44,1.67.56-.07.03-.07.09,0,.12,3.32,1.63,7.03,3.05,11.18,4.25,5.34,1.54,11.05,2.43,17.07,2.82,7.34.48,14.68.4,22.06-.17,2.14-.16,4.43-.1,6.39-.62l13.2-3.45c4.28-1.12,8.66-1.81,13.4-2.21,10.07-.84,19.88.45,28.82,2.68v5.83c-11.36-.94-20.99.35-31.09,2.88l.09-.25c.25-.71-15.34-.8-28.29,2.63l-7.82,2.07c-15.69-.32-27.92-4.61-40.34-9.2l-10.48-3.87c-3.62-1.34-7.16-2.49-11.05-3.54-12.69-3.43-26.17-3.92-39.81-2.02v-4.11c.48,0,.95,0,1.48-.04,1.07-.11,2.17-.04,3.31-.1,3.53-.18,6.5.04,9.82.05-2.46-.29-8.39-.24-10.94-.16l-2.64.09c-.35.01-.7.11-1.02.06v-3.62c3.79-.56,7.63-.88,11.67-.95,2.45-.04,4.72-.17,7.18-.09,4.55.14,8.85.62,13.18,1.39l11.11,1.98c11.91,2.13,24.19,1.24,35.4-1.25h0Z"/>
          <g>
            <path class="st89" d="M-8.15,90.5v-.1c.33.05.67-.05,1.02-.06l2.64-.09c2.55-.08,8.48-.14,10.94.16-3.32,0-6.29-.23-9.82-.05-1.13.06-2.24,0-3.31.1-.53.05-1.01.05-1.48.04,0,0,.01,0,.01,0Z"/>
            <path class="st89" d="M90.24,108.54c-3.02.13-6.12.41-9.54.19,1.35-.14,2.76.09,4.13-.08.87-.11,1.72-.07,2.57-.1l1.97-.08,1.83-.11,2.25-.09c.81-.03,1.69-.04,2.59-.02-.52.18-1.08.08-1.67.11l-2.35.12-1.78.08v-.02h0Z"/>
            <path class="st89" d="M144.25,104.49c-.65-.06-1.26-.29-1.9-.47-2.61-.73-5.27-1.15-8.1-1.47,3.69.09,6.98.95,10,1.93h0Z"/>
            <path class="st89" d="M132.59,101c-2.92.41-5.71.89-8.52,1.41,2.72-.75,5.53-1.2,8.52-1.41Z"/>
            <path class="st89" d="M133.15,100.96l.6-.27c.34.21.82.01,1.16-.02.49-.04,1.37,0,1.9-.11.48-.1,1.3.08,1.98.04-1.07.19-2.22.13-3.32.2-.75.05-1.38.14-2.33.15h.01Z"/>
            <path class="st89" d="M134.07,102.5c-.49.07-1.04.07-1.59-.02-.87-.14-1.8.1-2.8-.15,1.41-.35,2.14.22,3.4-.06.06.31.5.08.98.23h.01Z"/>
            <path class="st89" d="M80.23,108.76c-.55-.11-1.1-.03-1.74-.08l-1.52-.13c.6-.12,1.22-.04,1.85-.05.37.26,1.02-.13,1.41.25h0Z"/>
            <path class="st89" d="M144.25,104.49c.85.08,1.35.4,2.1.55.37.38-2.76-.66-2.1-.55Z"/>
            <path class="st89" d="M97.24,111.29c.13-.1.49-.09.65-.04.12.04.17.12.04.24-.07.06-.26.1-.49.09-.21-.01-.38-.15-.2-.29Z"/>
            <path class="st89" d="M74.55,108.31c.41.12,1.05-.14,1.24-.02.24.16.78.06,1.04.18-.83.06-1.62-.03-2.27-.17h-.01Z"/>
            <path class="st89" d="M74.55,108.31c-.31-.05-.71.13-1.06-.13.44-.07.81.05,1.06.13Z"/>
          </g>
        </g>
        <g>
          <path class="st29" d="M93.53,113.25c-3.03.8-6.04,1.79-9.44,2.28-1.57.22-6.22.12-8.05.02-4.7-.25-9.04-.94-13.35-1.87-5.23-1.13-9.87-2.61-14.71-4.19-5.23-1.72-10.52-3.05-16.15-4.12-4.82-.92-9.81-1.46-14.95-1.8-3.47-.23-10.86-.19-14.36.01l-2.18.13c-1.55.09-3.02.13-4.54.39,1.89-.05,3.77-.22,5.7-.34,1.63-.1,3.34-.11,4.94-.18,3.31-.14,6.38-.04,9.56.1l1.82.08c11.01.5,23.53,3.64,32.96,6.81,7.82,2.63,17.46,4.95,27.11,5.22l4.77.14c-4.52.79-9.08,1.41-13.96,1.72-10.45.67-20.83-.31-29.79-3.29-3.56-1.18-6.86-2.29-10.55-3.2-5.27-1.29-10.81-2.34-16.56-2.73,11.38,1.38,17.43,2.78,27.44,6.27,3.48,1.21,6.82,2.35,10.51,3.37.23.06.69-.02.65.26-4.18-.82-7.97-1.83-12.03-2.86l-17.47-4.46c-8.51-2.17-19.91-2.94-29.07-2.01v-2.64c2.23-.17,4.49-.24,6.73-.32l1.56-.06c2.29-.08,4.49,0,6.73.03,10.35.17,20.37,1.4,29.61,3.93l11.9,3.26c5.13,1.4,10.25,2.4,15.78,2.95.21.02.39,0,.49.07.05.04.27-.11.28-.18-4.66-.27-11.91-1.77-16.36-3l-11.15-3.08c-9.67-2.68-20.11-4.02-30.94-4.14-2.67-.03-5.29-.07-7.91-.02-2.24.05-4.51.08-6.73.27v-5.58l6.3-1.11c-1.01-.1-1.84-.03-2.72-.16,2.6-.05,3.79,0,6.41.05,8.7.19,15.74.45,23.24,2.27,3.54.86,6.72,1.87,10.14,3-1.26-.69-2.85-1.08-4.36-1.57-10.19-3.32-18.92-3.83-31.64-3.97,0-.24-.24-.15-.24,0l-5.34.07c-.35,0-.69.11-1.03.06-.24-.03-.51.02-.75,0v-4.5c13.64-1.9,27.12-1.41,39.81,2.02,3.89,1.05,7.43,2.2,11.05,3.54l10.48,3.87c12.42,4.59,24.65,8.88,40.34,9.2h.02Z"/>
          <g>
            <path class="st31" d="M-1.42,105.79c-.04.07-.03.17,0,.24-2.24.08-4.51.14-6.73.32v-.29c2.22-.19,4.48-.22,6.73-.27Z"/>
            <path class="st67" d="M-1.42,106.03c-.03-.08-.05-.17,0-.24,2.62-.06,5.24-.01,7.91.02,10.83.13,21.27,1.47,30.94,4.14l11.15,3.08c4.45,1.23,11.69,2.73,16.36,3,0,.07-.22.22-.28.18-.11-.08-.28-.05-.49-.07-5.53-.56-10.65-1.55-15.78-2.95l-11.9-3.26c-9.25-2.53-19.27-3.76-29.61-3.93-2.24-.04-4.43-.11-6.73-.03l-1.56.06h-.01Z"/>
            <path class="st16" d="M-4.57,99.21c-.87-.13-1.94.1-2.83,0v-.1c.33.04.68-.06,1.03-.06l5.34-.07c0-.15.24-.24.24,0,12.72.14,21.45.65,31.64,3.97,1.51.49,3.1.89,4.36,1.57-3.41-1.13-6.6-2.14-10.14-3-7.5-1.81-14.54-2.08-23.24-2.27-2.62-.06-3.81-.1-6.41-.05h0Z"/>
            <path class="st50" d="M41.2,101.26c-.19.03-.36-.03-.56-.1l-4.11-1.29c-6.3-1.97-12.94-3.31-20.41-3.76-.78-.05-1.54.01-2.27-.1s-1.38.06-2.05-.1c1.16-.09,3.98.03,5.07.11,9.42.65,16.72,2.54,24.33,5.24Z"/>
            <path class="st83" d="M54.58,110.85c.37-.02.74.08,1.16.17,5.18,1.16,10.5,1.88,15.99,2.45-5.91-.31-11.46-1.33-16.82-2.47-.08-.02-.16-.03-.23-.06-.07-.02-.11-.05-.09-.1h-.01Z"/>
            <path class="st3" d="M23.15,99.4l-4.58-.6c.15-.45,4.34.48,4.58.6Z"/>
            <path class="st83" d="M54.58,110.85c.07.04-.12.02-.44-.05-.22-.04-.5-.1-.79-.16-.88-.19-1.85-.45-1.62-.48,1.1.15,1.94.41,2.85.69Z"/>
          </g>
        </g>
        <path class="st47" d="M93.24,138.97c0,.24.59.03.97.27-9.84.99-23.26,1.13-32.83-.99l-9.47-2.1c-8.55-1.89-17.4-2.93-26.64-2.39-.84.05-1.64.2-2.49.15s-1.71.11-2.54.21c-5.97.73-11.62,1.76-17.27,3.12l-10.36,2.5c-.68.35.23-4.6-.52-3.99.12-.1.56-.33.37-.44,2.88-.57,5.7-1.16,8.63-1.84,9.46-2.19,17.84-4.04,28.45-3.91,10.61.13,19.02,1.79,28.26,3.91,4.86,1.11,9.48,2.18,14.51,3.1,6.89,1.26,13.8,2.08,20.95,2.41h-.02Z"/>
        <g>
          <path class="st51" d="M93.24,138.97c3.01.14,6.07,0,9.18-.13l9.62-.39c9.7-.39,17.95,1.33,26.33,3.29l10.6,2.48H-7.38l-.11-3.8c0-.25,0-.47.09-.67l10.36-2.5c5.66-1.36,11.3-2.39,17.27-3.12.83-.1,1.66-.26,2.54-.21s1.65-.1,2.49-.15c9.25-.54,18.1.5,26.64,2.39l9.47,2.1c9.57,2.12,22.99,1.98,32.83.99-.38-.24-.97-.02-.97-.27h0Z"/>
          <path class="st74" d="M109.42,141.8l-1.53.08-6.42.39.83-.29c.38.15.93,0,1.36-.03l1.33-.08c.35-.02,1.01-.09,1.39-.12l1.94-.11c1.01-.06,2.06.07,3.04-.03,1.02-.1,2.21-.03,3.24,0l2.65.08c.9.03,1.76.04,2.71.21-.5.1-1.05.04-1.61,0-1.48-.14-7.25-.2-8.94-.11h0Z"/>
          <path class="st55" d="M126.33,142.71c-.65.04-1.25-.05-1.87-.23.63-.03,1.22.08,1.87.23Z"/>
          <path class="st44" d="M122.8,142.22c-.67.12-1.09-.07-1.74-.11.58-.14,1.16-.02,1.74.11Z"/>
        </g>
        <path class="st19" d="M109.6,133.44c-1.45.18-2.96.23-4.54.36-15.72,1.26-28.46.04-41.88-3.09l-2.95-.69s.05-.12.11-.1c.14.05.28,0,.44.03,10.25,2.7,22.24,4.27,34.41,4.06,6.48-.11,12.36-.59,18.53-1.37l5.26-.67,11.51-1.75c2.24-.34,4.18-.74,6.41-1.19l16.61-3.38c1.82-.37,3.49-.78,5.44-1-6.42,1.21-19.65,4.46-26.58,5.54l-10.94,1.7c-4.01.62-7.92,1.07-11.85,1.55h.02Z"/>
        <g>
          <path class="st9" d="M50.23,127.97l9.25,1.82.75.23,2.95.69c13.42,3.13,26.16,4.34,41.88,3.09,1.58-.13,3.09-.18,4.54-.36.14.09-.2.05-.17.22,2.79-.39,10.86-.54,12.76-1,1.57-.37,3.19-.48,4.93-.55,2.61-.11,5.15-.31,7.74-.11,5.44-.11,10.83.02,16.36.4l9.43.66v2.15c-.23,0-.42-.05-.64-.07-3.79-.35-10.07-.27-14.25-.25l-10.56.07,10.32.07,7.21.05c2.46.02,4.81.1,7.16.22.28,0,.47.11.76.1v5.87c-5.17-.3-10.25-.77-15.6-1.55l-8.15-1.19c-5.36-.78-10.57-1.37-16.07-1.61-2.42-.1-7.77-.08-10.05.09-.73.06-4.82.19-4.79.45l1.82-.15,1.85-.11c.59-.03,1.18,0,1.79-.08.95-.13,1.92-.02,2.93-.1,2.05-.16,5.21,0,7.31.1l1.79.07c1.03.04,2.01.16,3.07.26,9.09.83,19.42,2.87,27.7,3.55l1.45.12,4.96.35v2.74h-11.66l-10.6-2.48c-8.38-1.96-16.64-3.68-26.33-3.29l-9.62.39c-3.11.13-6.17.27-9.18.13-7.14-.33-14.06-1.15-20.95-2.41-5.03-.92-9.64-1.98-14.51-3.1-9.24-2.12-18.04-3.78-28.26-3.91s-18.99,1.72-28.45,3.91c-2.93.68-5.75,1.28-8.63,1.84-.19.04-.42.04-.6.1v-5.77l9.8-1.54c3.35-.53,6.41-1.06,9.8-1.49,9.56-1.22,19.39-1.27,28.98-.06,3.41.43,6.66.82,9.8,1.43h-.02,0Z"/>
          <path class="st43" d="M160.64,141.27v.2l-4.96-.35-1.45-.12c-8.27-.68-18.61-2.71-27.7-3.55-1.05-.1-2.04-.21-3.07-.26l-1.79-.07c-2.1-.09-5.26-.25-7.31-.1-1.01.08-1.99-.03-2.93.1-.61.09-1.2.04-1.79.08l-1.85.11-1.82.15c-.03-.26,4.06-.4,4.79-.45,2.28-.17,7.63-.19,10.05-.09,5.49.23,10.71.82,16.07,1.61l8.15,1.19c5.34.78,10.42,1.25,15.6,1.55h0Z"/>
          <path class="st42" d="M113.06,134.89l-6.88.88c-1.69.22-3.34.33-5.08.43l-2.19.13c-1.01.06-1.95.03-2.97.09-2.28.14-5.22.02-7.54-.1l-2.55-.12-3.81-.31c-6.3-.51-12.36-1.61-18.06-3.02,5.63,1.06,11.03,2.17,16.94,2.73,1.64.16,3.11.31,4.74.41l2.19.13c2.52.15,6.47.21,9.02.1.85-.04,1.66-.03,2.47-.09,1.44-.11,2.82-.2,4.28-.31l1.63-.12,7.46-.94c.22-.03.52.09.33.11h.02Z"/>
          <path class="st73" d="M160,135.14s-.2.1-.12.16c-2.35-.12-4.69-.2-7.16-.22l-7.21-.05-10.32-.07,10.56-.07c4.18-.03,10.45-.11,14.25.25h0Z"/>
        </g>
        <path class="st45" d="M44.57,117.21l-2.21,1.68c-1.06-.34-2.35-.71-3.45-1.01-.06-.06.1-.16.21-.04.06.06.25.08.09-.07.75-.4,1.46-.93,1.77-1.41,1.18.29,2.39.6,3.59.85Z"/>
        <g>
          <path class="st51" d="M38.91,117.88c1.11.3,2.4.66,3.45,1.01,6.81,2.22,14.55,4.33,22.37,5.63,1.23.2.97-.04,2.59.08,1.34.09,2.75.07,4.08,0l2.42-.13c4.9-.25,9.53-.97,14.24-1.79l6.1-1.06c4.9-.85,9.71-1.61,14.85-1.87l2.61-.13c2.17-.11,5.53-.05,7.65.1l1.63.12c1.4.1,2.75.17,3.96.41-1.99-.05-4.3-.39-6.49-.45l-2.86-.08c-.91-.03-1.88-.09-2.77,0-.71.07-1.42.03-2.16.08-4.82.29-9.45.84-14.12,1.64l-7.42,1.27c-5.31.91-10.6,1.62-16.14,1.95l-.86.05c-1.72.1-3.42.03-5.25.02-.2,0-.59-.23-.72.02,6.86,1.07,13.76,1.66,20.94,1.76,15.07.19,31.69-1.59,44.99-5.29.23-.06.26-.28.59-.18-1.34.57-2.54,1.27-3.89,1.91l-7.96,3.79-15.52,2.46c-3.92.62-7.74,1.04-11.84,1.4-11.24,1.01-22.53.72-33.49-.87-.22-.03-.38.02-.4.07l-9.25-1.82c0-.1-.06-.22-.36-.3-7.44-2-13.79-4.32-21.3-6.34-11.86-3.19-23-4.48-36.16-3.54-.33-.32,0-.65.08-1.02.19-.84.11-2.67-.15-3.46-.02-.07-.13-.12-.14-.18,0-.07-.23-.04-.36-.04v-.29c.06.01.13-.02.19,0,.11.02.21,0,.19-.07,7.89-.66,15.83-.61,23.74.38,9.06,1.13,14.93,2.62,22.94,4.78v-.02h0Z"/>
          <path class="st84" d="M61.8,127.63c.76-.21,1.63-.06,2.03.36.33.35.15.82-.68,1.06-.66.19-1.6.06-2.01-.33-.38-.37-.14-.87.66-1.09Z"/>
        </g>
        <path class="st51" d="M124.84,120.24c.29.06.68-.09.95.06-.35.05-.81.12-.95-.06Z"/>
        <path class="st70" d="M67.01,97.35c3.78.04,7.55.27,11.3.49-.77.32,2.34.06,2.66.13.2.2.79.13,1.32.18,7.37.73,14.8.65,22.01-.18-.09.18.69-.07.78.21.01.04,0,.09-.01.13-5.56,1.16-12.71,1.96-18.75,2.21-2.98.12-8.16.08-11.19-.09-6.65-.38-13.09-1.19-19.22-2.32.04-.48.66-.67.57-1.4,3.49.36,6.97.59,10.53.63h0Z"/>
        <g>
          <path class="st8" d="M146.85,90.36c4.7-.05,9.27.4,13.78,1.06v8.67c-8.95-2.23-18.75-3.51-28.82-2.68-4.74.39-9.12,1.09-13.4,2.21l-13.2,3.45c-1.95.51-4.25.45-6.39.62-7.38.56-14.72.64-22.06.17-6.02-.39-11.73-1.27-17.07-2.82-4.15-1.2-7.86-2.62-11.18-4.25,7.77,1.74,15.89,3.17,24.47,3.7l2.25.14c2.97.18,7.81.2,10.83.1,6.85-.23,13.26-1.02,19.98-2.32-.22-.19-.68-.04-.96-.09.02-.05.03-.09.01-.13-.09-.29-.87-.04-.78-.21,3.36-.39,6.54-1.08,9.8-1.88l13.56-3.32c5.29-1.3,13.53-2.35,19.18-2.4v-.02Z"/>
          <path class="st87" d="M55.92,98.12c6.12,1.13,12.57,1.94,19.22,2.32,3.03.17,8.21.21,11.19.09,6.04-.24,13.19-1.04,18.75-2.21.29.04.75-.1.96.09-6.71,1.3-13.13,2.09-19.98,2.32-3.02.1-7.86.08-10.83-.1l-2.25-.14c-8.58-.53-16.7-1.96-24.47-3.7-.07-.03-.06-.09,0-.12,1.03.18,2.01.45,3.09.66l4.3.79h.02Z"/>
          <path class="st22" d="M106.61,98.1l7.05-1.3,3.95-.77,5.15-1.15c3.12-.7,10.67-1.94,14.34-1.68-3.97.13-7.79.52-11.51,1.3l-11.25,2.36c-2.71.57-5.28,1.11-8.11,1.48-.04-.08.2-.21.39-.24,0,0-.01,0-.01,0Z"/>
        </g>
        <path class="st30" d="M63.43,84.76s.04.08.02.12c-.72,0-1.54.05-2.24.12.04-.06-.03-.13-.22-.16l-4.73-.62c-3.25-.42-6.54-.2-9.78.21-2.26.29-4.31.76-6.61.94-.96,0-2.01-.45-2.77-.7.98-.39,1.82-.62,2.8-.79l4.12-.72c1.18-.21,2.33-.27,3.56-.34,3.25-.2,6.35.32,9.44.83,2.32.39,4.09.9,6.41,1.11Z"/>
        <g>
          <path class="st11" d="M160.64,105.92v7.03c-8.37-.24-15.31,1.03-23.16,2.49-7.65,1.42-15.47,1.94-23.54,1.5-2.15-.12-4.11-.27-6.24-.34l-5.26-.17,15.8-4.5c3.86-1.1,7.48-2.18,11.31-3.14,10.1-2.53,19.73-3.82,31.09-2.88h0Z"/>
          <path class="st69" d="M143.92,110.02c-7,.34-11.9,1.4-17.9,2.9-.78.19-1.41.51-2.46.56,5.1-1.57,13.41-3.33,19.77-3.56l2.49-.09c.98-.04,2.1-.11,3.06,0,.54.06,2.31.03,3.49.17-.6.21-1.26-.02-1.89-.02-2.26,0-4.39-.07-6.56.04h0Z"/>
          <path class="st53" d="M120.7,114.18l-8.87,2.26c.09-.23,6.24-1.71,6.34-1.72.89-.17,1.98-.59,2.52-.54h.01Z"/>
          <path class="st53" d="M120.7,114.18c.17-.19.5-.27.76-.15-.3.11-.57.12-.76.15Z"/>
        </g>
        <g>
          <path class="st61" d="M50.23,127.97c-3.13-.62-6.39-1-9.8-1.43-9.6-1.21-19.42-1.16-28.98.06-3.4.43-6.46.97-9.8,1.49l-9.8,1.54v-11.74c.19,0,.44-.03.57-.1,13.15-.94,24.3.35,36.16,3.54,7.51,2.02,13.86,4.34,21.3,6.34.3.08.36.2.36.3h0Z"/>
          <path class="st7" d="M26.7,122.1c-1.3-.14-7.97-2.67-18.43-3.43-2.37-.17-7.77-.29-9.93-.14l-5.19.36.83-.28c.3.18,2.55-.14,3.77-.18l2.47-.08c1.28-.04,2.72-.1,3.99,0,.89.07,1.72,0,2.56.1.54.07,1.06.05,1.62.09,6.71.51,12.66,1.75,18.3,3.58v-.02h.01Z"/>
          <path class="st7" d="M26.7,122.1c.75.08,1.32.35,1.93.57-.82-.05-1.48-.3-1.93-.57Z"/>
        </g>
        <g>
          <path class="st20" d="M19.92,80.55c6.1.83,13.23,3.28,15.47,3.63,2.46.39,7.67-1.55,12.99-1.53.38,0,.68-.09,1.13-.01.64.11,1.37.01,2.01.07,2.69.27,5.25.65,7.77,1.23.41.09,5.45.91,4.14.82-2.32-.21-4.09-.72-6.41-1.11-3.09-.51-6.18-1.03-9.44-.83-1.23.07-2.37.13-3.56.34l-4.12.72c-.98.17-1.82.4-2.8.79.76.25,1.82.7,2.77.7,2.3-.19,4.34-.65,6.61-.94,3.24-.42,6.54-.64,9.78-.21l4.73.62c.19.02.26.09.22.16-1.84.18-3.68.33-5.57.59-4.72.66-9.37,1.45-13.71,2.46-2.76-.45-5.23-1.33-7.71-2.23l-4.35-1.57c-3.96-1.43-8.42-2.41-13.21-2.6l-2.29-.09c-2.38-.1-2.17-.05-4.66.11l6.37.08c5.18.07,9.92,1.26,14.16,2.8l5.23,1.9c1.96.71,4,1.31,6.27,1.74.14.03.23.04.3.07.13.06.32-.03.27-.1,2.39.83,9.29.47,11.86.14,1.33-.08,2.64-.23,4.01-.39l9.93-1.19c2.27-.27,4.41-.53,6.6-.69-1.41.58-2.66,1.49-4.35,1.87-11.22,2.49-23.49,3.38-35.4,1.25l-11.11-1.98c-4.33-.77-8.62-1.25-13.18-1.39-2.45-.08-4.73.05-7.18.09-4.04.07-7.88.39-11.67.95v-3.91c2.14-.6,4.22-1.17,6.61-1.67,6.94-1.45,14.33-1.62,21.46-.65l.03-.04h0Z"/>
          <path class="st49" d="M78.51,84.15c.07,0,.14-.02.21,0,.09.12-3.35,1.63-3.42,1.65l-6.6.7-12.22,1.44-1.9.21c-.25-.01-.45-.02-.38.12-2.58.33-9.47.69-11.86-.14-.1-.03-.27-.08-.4-.1,4.34-1.01,8.98-1.8,13.71-2.46,1.88-.26,3.73-.41,5.57-.59.7-.07,1.52-.11,2.24-.12l8.37-.09,2.16-.13c1.14-.07,2.25-.2,3.37-.33.09,0,.29.02.22-.07.32.04.62-.09.93-.11,0,0,0,.02,0,.02Z"/>
          <path class="st4" d="M41.94,88.05c.13.02.3.07.4.1.05.07-.14.16-.27.1-.07-.03-.16-.04-.3-.07-2.27-.43-4.32-1.03-6.27-1.74l-5.23-1.9c-4.24-1.54-8.99-2.73-14.16-2.8l-6.37-.08c2.49-.16,2.28-.21,4.66-.11l2.29.09c4.79.19,9.25,1.17,13.21,2.6l4.35,1.57c2.48.89,4.94,1.78,7.71,2.23h-.02Z"/>
          <path class="st4" d="M75.3,85.81c-.15.05-.33.18-.56.2-2.19.16-4.34.42-6.6.69l-9.93,1.19c-1.37.16-2.68.31-4.01.39-.07-.14.13-.14.38-.12l1.9-.21,12.22-1.44,6.6-.7Z"/>
          <g>
            <path class="st24" d="M145.75,83.26c0,.17,1.95.6,2.45.7-.12-.2-.45-.24-.69-.32.17-.07.16-.18.12-.28,3.81,1.3,8.06,2.28,12.45,2.91.18.03.33.13.55.1v2.96c-9.07-1.43-14.62-3.9-24.29-5.28-4.54-.65-8.89-1.09-13.57-1.24-9.98-.31-19.66.68-28.44,3.17l-9.16,2.6-7.51,2.04c-2.48.67-5.06,1.11-7.83,1.42-.31.04-.63.07-.71-.08.29-.11.48-.36.73-.48,1.54-.62,3.07-1.29,4.32-2.06.38-.17.86-.32,1.12-.56.15,0,.33-.02.24-.11l8.08-4.11c3.21-1.63,6.66-2.92,10.53-4.11,7.78-2.4,16.66-3.31,25.63-2.62,7.74.59,13.48,2,19.6,3.67l3.33.91c1.03.28,2.01.59,3.05.77h0Z"/>
            <path class="st68" d="M160.64,90.44v.98c-4.52-.66-9.08-1.11-13.78-1.06-.15-.27-.81-.35-1.29-.44-9.71-1.89-18.76-2.06-29.58.02-7.3,1.4-13.76,3.66-20.93,5.38-5.41,1.3-11.03,2.27-16.74,2.52-3.75-.22-7.52-.45-11.3-.49l1.5-.28c2.07-.16,4.18-.4,6.04-.87.87-.09,1.65-.29,2.44-.48.31-.07.8-.2,1.14-.26.92-.16,2.51-.53,3.2-.83-.14.09,2.57-.6,2.1-.6.54-.06,1.1-.28,1.48-.47.24,0,1.69-.44,1.88-.61.29,0,1.81-.52,1.7-.59.24-.03.46-.08.57-.18.4-.08.93-.19,1.13-.41.39-.03.95-.2,1.13-.39.31,0,1.26-.4,1.32-.49.35-.02,1.02-.21,1.13-.39.42-.03.92-.21,1.13-.39l6.22-1.96c1.16-.36,2.39-.58,3.38-.98.88-.08,1.63-.37,2.46-.53,3.57-.67,7.17-1.26,11.11-1.41,4.61-.18,9.02-.08,13.57.36,10.33,1.02,15.39,1.85,24.9,3.98,1.4.32,2.68.68,4.11.86h-.02,0Z"/>
            <path class="st27" d="M160.64,84.91v1.19l-.53-.05c-4.78-.46-14.11-3.61-17.36-4.45-.08-.25-.81-.22-.75-.49l6.8,1.69c3.85.96,7.78,1.67,11.85,2.11h-.01Z"/>
            <path class="st32" d="M141.8,81.11c-.11.3.51.38.94.49.06.19.49.26.79.37l4.11,1.4c.04.1.05.21-.12.28-.28-.09-.78-.11-1.02-.26-.26-.17-.49-.08-.74-.12,0-.14-.3-.16-.51-.22l-4.16-1.17-4.58-1.24c-4.13-1.11-9.2-2.16-14.26-2.74-9.21-1.06-18.52-.42-26.79,1.94-6.53,1.87-11.67,4.4-16.8,7.14l-2.96,1.58c-.14.08-.28.15-.16.21.1.09-.09.1-.24.11-.55.03-.8.37-1.12.56-1.49.64-2.92,1.36-4.32,2.06-.25.12-.44.37-.73.48-3.22,1.19-6.66,2.09-10.54,2.72-3.26.53-6.44,1.01-9.87,1.13-.11,0-.29-.06-.44-.03-.12.03-.12.12-.1.2-.42.01-1.07-.06-1.32.12-.81-.3-1.77-.53-2.66-.95,9.08-.94,19.26-4.24,26.2-7.28,1.7-.38,2.95-1.29,4.35-1.87.23-.02.41-.15.56-.2.07-.02,3.51-1.53,3.42-1.65.13.04.2-.02.16-.08,1.84-.7,3.45-1.54,5.29-2.37,5.67-2.54,11.09-4.83,18.26-6.15,7.55-1.38,15.63-1.26,22.97.4,2.85.64,5.31,1.35,7.91,2.23,2.89.97,5.83,1.91,8.48,2.93v-.02h0Z"/>
            <path class="st95" d="M142.74,81.6c-.43-.11-1.05-.19-.94-.49.06,0,.14-.01.19,0-.05.27.68.24.75.49Z"/>
            <path class="st28" d="M145.57,89.92c.48.09,1.13.17,1.29.44-5.65.06-13.89,1.11-19.18,2.4l-13.56,3.32c-3.26.8-6.44,1.49-9.8,1.88-7.22.83-14.64.91-22.01.18-.54-.05-1.12.02-1.32-.18,5.3-.52,10.44-1.31,15.28-2.63l8.81-2.4c3.05-.83,5.85-1.65,9.04-2.35,11.02-2.44,20.27-2.55,30.69-.66.19.03.29.09.47.09.13,0,.31.01.29-.1h0Z"/>
            <path class="st64" d="M145.75,83.26c-1.04-.18-2.02-.49-3.05-.77l-3.33-.91c-6.13-1.67-11.87-3.08-19.6-3.67-8.97-.68-17.85.22-25.63,2.62-3.87,1.19-7.32,2.48-10.53,4.11l-8.08,4.11c-.12-.06.02-.13.16-.21l2.96-1.58c5.13-2.74,10.27-5.27,16.8-7.14,8.27-2.36,17.57-3,26.79-1.94,5.06.58,10.13,1.63,14.26,2.74l4.58,1.24,4.16,1.17c.21.06.51.08.51.22h0Z"/>
            <path class="st59" d="M160.1,86.05c-.03.07-.02.15-.02.22-4.4-.63-8.65-1.61-12.45-2.91l-4.11-1.4c-.3-.1-.73-.18-.79-.37,3.25.84,12.59,3.99,17.36,4.45h0Z"/>
            <path class="st64" d="M74.17,89.43c-1.25.77-2.78,1.44-4.32,2.06,1.4-.7,2.84-1.41,4.32-2.06Z"/>
            <path class="st17" d="M147.51,83.65c.24.07.57.12.69.32-.5-.09-2.46-.53-2.45-.7.25.04.48-.05.74.12.24.16.74.18,1.02.26h0Z"/>
            <path class="st64" d="M74.17,89.43c.31-.19.57-.53,1.12-.56-.25.24-.74.39-1.12.56Z"/>
            <g>
              <path class="st38" d="M160.64,89.33v1.11c-1.43-.18-2.7-.54-4.11-.86-9.51-2.14-14.57-2.97-24.9-3.98-4.55-.45-8.96-.55-13.57-.36-3.94.15-7.54.74-11.11,1.41-.06-.24-2,.34-2.46.53-.78.31-1.71.51-2.64.76-.25.07-.49.14-.74.21l-.66.21-5.56,1.75c-.4.12-.95.1-1.13.39-.43.03-.99.15-1.13.39-.52.03-1.07.23-1.32.49-.47-.01-.94.19-1.13.39-.46.03-.98.16-1.13.41-.11.1-.32.15-.57.18-.63.07-1.36.29-1.7.59-.39,0-2.01.47-1.88.61-.38.19-.94.41-1.48.47-1.24.13-.98.28-1.48.32-.35.03-.46.21-.62.28-.69.3-2.29.67-3.2.83.32-.17-1.45.1-1.14.26-.04.01-.08.02-.13.03-.75.18-1.49.36-2.32.45-1.95.2-3.83.52-5.83.78-.26-.07-.52.02-.21.09l-.27.05-1.22.23c-3.56-.04-7.04-.27-10.53-.63l-5.1-.53c-1.11-.12-2.16-.24-3.2-.2-.02-.08-.02-.17.1-.2.14-.03.33.03.44.03,3.43-.12,6.61-.6,9.87-1.13,3.88-.63,7.32-1.53,10.54-2.72.08.15.4.11.71.08,2.77-.31,5.35-.75,7.83-1.42l7.51-2.04,9.16-2.6c8.78-2.49,18.46-3.48,28.44-3.17,4.68.15,9.04.59,13.57,1.24,9.67,1.39,15.22,3.85,24.29,5.28h0Z"/>
              <g>
                <path class="st78" d="M94.14,87.57c-1.49.64-3.21,1.05-4.86,1.58l-5.13,1.65c-.81.26-1.56.6-2.44.68l7.48-2.46c1.23-.41,3.82-1.24,4.95-1.45Z"/>
                <path class="st12" d="M74.55,96.2c-1.86.48-3.97.72-6.04.87-.31-.08-.05-.16.21-.09,2-.26,3.88-.58,5.83-.78Z"/>
                <path class="st78" d="M81.71,91.48c.35.02-1.35.48-2.11.63-.2.04-.33.06-.36.05.22-.21,2-.64,2.47-.69h0Z"/>
                <path class="st18" d="M106.95,86.65c-.83.16-1.58.44-2.46.53.46-.18,2.4-.77,2.46-.53Z"/>
                <path class="st65" d="M83.43,94.03c.47,0-1.83.35-1.48.32.5-.04.25-.19,1.48-.32Z"/>
                <path class="st78" d="M94.14,87.57c.39-.17,1.1-.44,1.93-.46-.54.24-1.2.4-1.93.46Z"/>
                <path class="st65" d="M86.79,92.95c-.19.17-1.65.62-1.88.61-.13-.13,1.49-.6,1.88-.61Z"/>
                <path class="st65" d="M88.49,92.36c.11.07-1.4.58-1.7.59.33-.29,1.07-.51,1.7-.59Z"/>
                <path class="st65" d="M92.63,90.9c-.06.09-1.01.5-1.32.49.24-.26.8-.46,1.32-.49Z"/>
                <path class="st65" d="M93.76,90.5c-.11.19-.78.37-1.13.39.15-.24.7-.36,1.13-.39Z"/>
                <path class="st65" d="M94.89,90.11c-.21.18-.71.36-1.13.39.18-.29.73-.27,1.13-.39Z"/>
                <path class="st91" d="M78.13,95.46c-.33.06-.82.19-1.14.26-.31-.16,1.46-.43,1.14-.26Z"/>
                <path class="st65" d="M91.31,91.38c-.18.19-.74.36-1.13.39.19-.2.66-.41,1.13-.39Z"/>
                <path class="st65" d="M90.18,91.78c-.2.21-.73.32-1.13.41.15-.25.67-.37,1.13-.41Z"/>
              </g>
            </g>
            <path class="st23" d="M145.57,89.92c.02.11-.16.1-.29.1-.18,0-.29-.06-.47-.09-10.43-1.89-19.68-1.78-30.69.66-3.19.7-5.99,1.52-9.04,2.35l-8.81,2.4c-4.84,1.32-9.98,2.11-15.28,2.63-.33-.07-3.43.2-2.66-.13,5.72-.26,11.33-1.22,16.74-2.52,7.16-1.72,13.63-3.98,20.93-5.38,10.82-2.08,19.87-1.91,29.58-.02h0Z"/>
          </g>
        </g>
        <g>
          <path class="st14" d="M160.07,114.67h.57v8.69c-9.21-.5-21.21.71-30.31,2.01l-9.59,1.36,7.96-3.79c1.35-.64,2.55-1.34,3.89-1.91,2.63-1.11,5.24-2.28,8.1-3.22,5.68-1.86,12.15-3.14,19.39-3.14h-.01Z"/>
          <g>
            <path class="st48" d="M160.07,114.47v.2c-7.24,0-13.71,1.28-19.39,3.14,0-.14.29-.23.56-.31,3.12-.96,6.28-1.82,9.77-2.33,3.01-.44,5.98-.7,9.05-.7h0Z"/>
            <path class="st71" d="M153.49,120.56c.51-.14,1.04.02,1.2.26.13.19-.03.48-.38.57-.46.12-.98.03-1.23-.21-.17-.16-.11-.47.41-.62Z"/>
            <path class="st76" d="M143.54,120.95c-1.53.36-2.77.88-4.42,1.14,1.89-.63,5.03-1.59,7.03-1.74-.83.26-1.72.39-2.61.6Z"/>
            <path class="st10" d="M133.7,123.96c.26-.21,4.2-1.63,5.22-1.77-1.18.55-2.68.89-4.02,1.42-.38.15-.73.35-1.2.34h0Z"/>
            <path class="st10" d="M133.7,123.96c-.42.35-1.19.49-1.87.71-.44-.05,2.14-.89,1.87-.71Z"/>
          </g>
        </g>
        <g>
          <path class="st89" d="M82.66,115.92c3.95.11,7.84.14,11.85.63,1.82.22,3.57.31,5.28.44-7.23,1.52-14.71,2.83-22.59,3.27-9.08.51-18.03-.01-26.42-1.76l-6.21-1.29c-1.21-.25-2.41-.57-3.59-.85l-16.59-4.01-4.53-1.1c-3.43-.83-6.88-1.5-10.68-1.88-5.59-.57-11.12-.63-16.74-.26-.25.02-.43-.05-.58-.02v-.1c9.15-.93,20.56-.16,29.07,2.01l17.47,4.46c4.06,1.04,7.85,2.04,12.03,2.86.04-.27-.43-.19-.65-.26-3.69-1.02-7.02-2.16-10.51-3.37-10.01-3.49-16.06-4.89-27.44-6.27,5.75.39,11.28,1.44,16.56,2.73,3.7.91,6.99,2.02,10.55,3.2,8.96,2.97,19.34,3.96,29.79,3.29,4.87-.31,9.44-.93,13.96-1.72,0,0-.03,0-.03,0Z"/>
          <g>
            <path class="st89" d="M61.8,119.42c-1.29-.03-2.52-.11-3.85-.3-.4-.18,3.13.12,2.94.09,1.85.23,8.67.17,10.77,0l3.63-.28c1.62-.12,3.09-.39,4.75-.44-1.46.27-2.96.41-4.55.55l-3.26.27-1.9.09-3.41.09c-.7.02-1.37.02-2.06,0l-3.06-.08h0Z"/>
            <path class="st89" d="M84.15,117.99c-.66.23-1.52.2-2.25.28.24-.12.39-.11.44-.29.58.3.73-.08,1.81,0h0Z"/>
            <path class="st89" d="M55.9,118.87c.48-.02.98-.01,1.52.13.3-.1.55.05.24.14-.66-.14-1.37-.06-1.76-.26h0Z"/>
            <path class="st89" d="M84.15,117.99c.25-.09.57-.05.8-.23.2-.03.62.05.91.09-.63.06-1.09.18-1.71.14Z"/>
            <path class="st89" d="M55.9,118.87c-.58.03-1.14-.07-1.72-.15.7-.15,1.17.09,1.72.15Z"/>
          </g>
        </g>
        <g>
          <path class="st94" d="M93.53,113.25l7.82-2.07c12.95-3.43,28.53-3.34,28.29-2.63l-.09.25c-3.83.96-7.45,2.04-11.31,3.14l-15.8,4.5-2.64.55c-1.71-.12-3.45-.21-5.28-.44-4.01-.49-7.91-.52-11.85-.63l-4.77-.14c-9.65-.28-19.29-2.59-27.11-5.22-9.43-3.17-21.95-6.31-32.96-6.81l-1.82-.08c-3.19-.14-6.25-.24-9.56-.1-1.6.07-3.31.08-4.94.18-1.93.12-3.81.29-5.7.34,1.52-.26,2.98-.3,4.54-.39l2.18-.13c3.5-.2,10.89-.24,14.36-.01,5.14.33,10.13.87,14.95,1.8,5.63,1.08,10.92,2.41,16.15,4.12,4.84,1.59,9.48,3.06,14.71,4.19,4.31.93,8.65,1.63,13.35,1.87,1.84.1,6.49.2,8.05-.02,3.4-.49,6.41-1.48,9.44-2.28h-.01Z"/>
          <path class="st25" d="M90.68,115.36c-.82.07-1.51.19-2.22.01l13.8-.98c-3.77.43-7.58.65-11.58.97Z"/>
          <path class="st34" d="M105.28,114.2c.02-.22.66-.06.79-.27,2.86.24.37-.36,2.97.02-1.14.17-2.31.2-3.75.25h-.01Z"/>
        </g>
      </g>
    </g>
  </g>
  <polygon class="st80" points="68.93 28.55 59.79 25.17 34.36 15.76 31.25 17.85 28.86 19.7 26.46 21.79 24.32 23.82 22.68 25.58 19.93 28.55 18.34 30.76 59.79 28.95 68.93 28.55"/>
  <polyline class="st35" points="67.42 63.79 67.3 63.84 67.17 63.87 66.93 63.88 66.56 63.87 66.56 64.72 67.42 64.72 69.32 64.72 69.32 63.79 69.32 64.72 69.37 64.72 69.37 63.79 69.37 64.72 71.28 64.72 72.13 64.72 72.13 63.87 71.77 63.88 71.52 63.87 71.4 63.84 71.28 63.79"/>
  <polyline class="st62" points="56.6 33.73 56.29 33.73 56.5 36.08 56.6 36 56.8 35.89 57.08 35.78 57.59 35.63 58.36 35.45 59.24 35.29 59.78 35.21 77.98 35.22 77.98 38.54 77.93 38.64"/>
  <polygon class="st62" points="55.3 41.03 55.36 39.52 55.36 39.11 56.93 39.11 57.84 39.11 57.84 40.96 55.3 41.03"/>
  <polyline class="st62" points="71.13 40.44 68.58 40.52 68.64 39"/>
  <polygon class="st62" points="82.47 41.01 82.61 40.93 82.61 39.11 79.63 39.11 80.09 41.03 82.47 41.01"/>
  <polygon class="st62" points="81.74 33.55 81.83 33.63 81.83 39.11 81.61 39.12 81.61 34.24 81.74 33.55"/>
  <polyline class="st62" points="56.29 33.88 56.29 39.11 56.02 39.11 56.02 33.88 56.05 33.7"/>
  <polyline class="st62" points="81.83 33.63 81.75 33.52 81.77 33.59"/>
  <polyline class="st62" points="56.56 37.32 57.19 37.19 57.93 37.02 58.6 36.89 59.32 36.77 59.87 36.71 59.91 36.78 56.5 37.54"/>
  <polyline class="st62" points="59.78 35.21 59.79 38.6 60.38 38.62 60.16 35.21"/>
  <polygon class="st62" points="56.42 38.35 58.25 38.64 59.81 38.71 59.82 38.95 56.29 39.15 56.42 38.35"/>
  <polyline class="st62" points="80.09 38.6 80.45 39.38 81.61 39.12 81.44 38.26"/>
  <polygon class="st41" points="78.93 14.3 78.87 14.36 78.93 14.39 78.98 14.34 78.93 14.3"/>
  <polygon class="st62" points="67.15 16.85 67.16 16.74 67.16 16.65 67.19 16.51 67.22 16.37 67.23 16.28 67.25 16.23 67.27 16.18 67.29 16.12 67.32 16.07 67.34 16.03 67.38 15.98 67.41 15.95 67.44 15.92 67.47 15.9 67.51 15.89 67.54 15.88 67.58 15.87 67.62 15.87 67.66 15.87 67.73 15.87 67.8 15.24 68.93 15.24 68.93 16.85 67.15 16.85"/>
  <polygon class="st62" points="70.74 16.85 70.73 16.74 70.73 16.65 70.7 16.51 70.67 16.37 70.66 16.28 70.64 16.23 70.62 16.18 70.6 16.12 70.57 16.07 70.55 16.03 70.51 15.98 70.48 15.95 70.45 15.92 70.42 15.9 70.38 15.89 70.35 15.88 70.31 15.87 70.27 15.87 70.23 15.87 70.16 15.87 70.09 15.24 68.96 15.24 68.96 16.85 70.74 16.85"/>
  <ellipse class="st62" cx="68.96" cy="13.84" rx="2.07" ry="1.92"/>
  <polyline class="st62" points="77.17 23.86 60.58 23.87 60.83 23.18 77.22 23.11"/>
  <polygon class="st62" points="77.69 23.85 78.57 23.78 79.37 22.15 70.74 16.86 68.93 16.85 68.9 23.87 77.69 23.85"/>
  <polygon class="st62" points="60.14 23.85 59.26 23.78 58.46 22.15 67.08 16.86 68.89 16.85 68.93 23.87 60.14 23.85"/>
  <polygon class="st62" points="69.67 31.54 71.77 31.62 75.14 31.83 77.4 32.09 77.25 32.44 69.67 31.99 69.67 31.54"/>
  <polygon class="st62" points="68.26 31.54 66.16 31.62 62.79 31.83 60.52 32.09 60.68 32.44 68.26 31.99 68.26 31.54"/>
  <polyline class="st62" points="60.16 23.86 60.08 32.4 60.83 32.4 60.83 23.77"/>
  <polyline class="st62" points="77.61 23.86 77.69 32.4 76.94 32.4 76.94 23.77"/>
  <polyline class="st62" points="69.22 11.93 69.04 7.76 68.82 7.76 68.69 11.93"/>
  <polygon class="st93" points="62.31 65.26 61.87 70.95 76.02 70.81 75.58 65.1 62.31 65.26"/>
  <polygon class="st93" points="61.03 81.8 60.89 83.64 76.98 83.39 76.86 81.8 61.03 81.8"/>
  <polygon class="st51" points="73.31 89.81 74.53 89.17 75.16 88.84 75.58 88.62 75.63 88.71 73.37 89.89 73.31 89.81"/>
  <polyline class="st32" points="75.03 88.91 74.39 89.24 74.53 88.91 74.91 88.69"/>
  <polygon class="st24" points="74.53 89.28 75.25 88.91 75.25 89.04 74.58 89.36 74.53 89.28"/>
  <polygon class="st68" points="68.51 97.07 70.6 96.81 72.02 96.58 74.55 96.2 73.93 97 68.51 97.07"/>
  <polygon class="st38" points="68.06 96.54 74.99 95.58 74.71 96.18 74.07 96.27 73.7 96.33 73.19 96.4 72.96 96.44 72.67 96.48 72.33 96.53 71.19 96.71 70.6 96.81 70.13 96.87 69.42 96.96 68.51 97.07 68.39 97.1 68.06 96.54"/>
  <polyline class="st38" points="76.91 95.74 76.84 95.45 78.28 95.24 78.28 95.43"/>
  <polyline class="st68" points="83.52 94.02 82.32 95.02 81.28 94.65 82.11 94.39"/>
  <polyline class="st38" points="81.25 94.66 81.75 94.5 82.54 94.28 82.99 94.16 83.4 94.05 83.56 94.01 82.55 93.8"/>
  <polygon class="st78" points="80.82 91.65 83.56 90.87 83.61 90.98 80.84 91.81 80.82 91.65"/>
  <polyline class="st78" points="82.6 91.34 80.98 91.77 95.9 87.31 96.04 87.23 96.07 87.11 96.07 86.98 95.88 86.98 95.62 86.98 79.33 91.98 79.27 92.05 79.27 92.1 79.23 92.17"/>
  <polyline class="st38" points="78.28 91.49 79.23 93.62 98.06 87.52 96.93 86.17"/>
  <polyline class="st51" points="105.08 98.32 107.34 97.97 107.47 98.17 105.08 98.59"/>
  <polygon class="st83" points="55.1 110.89 52.06 110.22 53.13 110.55 55.06 110.97 55.1 110.89"/>
  <polygon class="st83" points="53.47 110.67 55.01 111.02 55.06 110.97 53.47 110.67"/>
  <line class="st0" x1="53.52" y1="110.59" x2="53.47" y2="110.67"/>
  <polygon class="st51" points="82.7 84.88 71.08 90.87 71.32 90.87 82.88 85.02 82.7 84.88"/>
  <polyline class="st68" points="74.55 96.2 75.93 95.97 76.99 95.72 78.13 95.46 79.55 95.11 81.09 94.69 81.75 94.5 83.64 94 84.91 93.56 86.79 92.95 88.49 92.36 89.05 92.18 90.18 91.78 91.31 91.38 92.63 90.9 93.76 90.5 94.89 90.11 95.03 90.3 84.33 93.91 75.63 96.54"/>
  <polygon class="st68" points="82.99 94.16 84.01 93.87 84.01 94.1 83.07 94.39 82.99 94.16"/>
  <polygon class="st38" points="84.82 93.6 84.91 93.56 86.79 92.95 88.49 92.36 89.05 92.18 90.18 91.78 91.31 91.38 92.63 90.9 93.76 90.5 94.89 90.11 94.42 89.66 84.65 93.24 84.82 93.6"/>
  <polyline class="st68" points="100.98 88.19 102.92 87.6 104.33 87.18 104.45 87.15 104.5 87.14 104.55 87.12 106.95 86.65"/>
  <polyline class="st38" points="107.11 86.29 106.99 86.64 104.74 87.08"/>
  <path class="st4" d="M41.81,88.15c2.04.68,4.26.65,6.41.55,2.03-.09,4.06-.24,6.08-.43,0-.03,0-.07-.03-.09-3.97.4-8.02.7-11.95,0-.17-.03-.34-.02-.52-.03,0,0,0,0,0,0Z"/>
  <polyline class="st20" points="49.92 88.61 50.72 88.56 52.03 88.47 53.3 88.37 54.34 88.28 54.21 88.43 49.89 88.72"/>
  <polyline class="st49" points="54.23 88.19 54.58 88.17 54.41 88.06"/>
  <polygon class="st4" points="41.94 88.05 42.77 88.26 42.71 88.3 41.94 88.1 41.94 88.05"/>
  <polygon class="st62" points="59.79 41.75 58.83 44.55 62.77 44.55 72.87 44.39 79.18 44.51 79.2 44.36 78.3 42.16 59.79 41.75"/>
  <polygon class="st62" points="59.79 38.01 59.82 38.95 77.98 38.85 77.98 37.81 59.79 38.01"/>
  <g>
    <path class="st21" d="M153.88,20.2v33.87h39.09V20.2h10.5v80.88h-10.5v-37.94h-39.09v37.94h-10.5V20.2h10.5Z"/>
    <path class="st21" d="M234.3,26.64c0,3.59-2.52,6.56-6.71,6.56-3.82,0-6.38-2.97-6.37-6.56,0-3.62,2.7-6.57,6.56-6.57s6.49,2.88,6.52,6.57ZM222.51,101.08v-58.03h10.5v58.03h-10.5Z"/>
    <path class="st21" d="M300.67,43.05c-.29,4.1-.49,8.81-.49,15.88v33.7c0,13.43-2.74,21.48-8.29,26.57-5.7,5.23-13.82,6.96-21.14,6.96s-14.66-1.64-19.37-4.78l2.64-8.12c3.87,2.42,9.84,4.65,17.08,4.65,10.77,0,18.69-5.64,18.69-20.33v-6.47h-.24c-3.17,5.45-9.5,9.78-18.44,9.78-14.47,0-24.74-12.3-24.74-28.39,0-19.68,12.8-30.77,26.2-30.77,10.07,0,15.52,5.18,18.1,10.01h.24l.44-8.69h9.32ZM289.69,65.87c0-1.73-.15-3.3-.58-4.72-1.95-6.15-7.04-11.23-14.82-11.23-10.07,0-17.29,8.51-17.29,22,0,11.35,5.86,20.9,17.18,20.9,6.55,0,12.42-4.14,14.68-10.88.56-1.7.83-3.77.83-5.61v-10.46h0Z"/>
    <path class="st21" d="M317.67,15.88h10.5v36.23h.24c1.75-2.97,4.37-5.62,7.59-7.45,3.07-1.82,6.81-2.93,10.81-2.93,7.82,0,20.23,4.77,20.23,24.79v34.56h-10.5v-33.4c0-9.37-3.54-17.23-13.42-17.23-6.91,0-12.22,4.82-14.24,10.53-.55,1.48-.71,3.08-.71,5.03v35.07h-10.5V15.88Z"/>
    <path class="st21" d="M394.01,29.03h-24.64v-8.82h59.89v8.82h-24.75v72.05h-10.5V29.03h0Z"/>
    <path class="st21" d="M446.34,26.64c0,3.59-2.52,6.56-6.71,6.56-3.82,0-6.38-2.97-6.37-6.56,0-3.62,2.7-6.57,6.56-6.57s6.49,2.88,6.52,6.57ZM434.55,101.08v-58.03h10.5v58.03h-10.5Z"/>
    <path class="st21" d="M512.71,15.88v70.23c0,5.16.2,10.96.48,14.97h-9.38l-.53-10.04h-.28c-3.23,6.48-10.21,11.36-19.69,11.36-14.06,0-24.91-11.89-24.91-29.48-.09-19.4,11.95-31.19,26.08-31.19,8.91,0,14.91,4.18,17.51,8.8h.24V15.88h10.49,0ZM502.22,66.66c0-1.37-.13-3.13-.44-4.51-1.64-6.66-7.33-12.14-15.28-12.14-10.93,0-17.46,9.58-17.46,22.34,0,11.79,5.87,21.57,17.25,21.57,7.06,0,13.48-4.77,15.42-12.67.37-1.39.52-2.87.52-4.53v-10.06s-.01,0-.01,0Z"/>
    <path class="st21" d="M536.21,73.97c.21,14.27,9.26,20.15,19.86,20.15,7.55,0,12.17-1.35,16.07-2.97l1.85,7.5c-3.69,1.69-10.14,3.7-19.36,3.7-17.83,0-28.55-11.88-28.55-29.29s10.36-31.32,27.31-31.32c18.93,0,23.88,16.61,23.88,27.29,0,2.22-.13,3.8-.36,4.95h-40.7ZM567.1,66.38c.11-6.65-2.72-17.08-14.56-17.08-10.77,0-15.36,9.74-16.2,17.08h30.76Z"/>
  </g>
</svg>